<svg width="168" height="41" viewBox="0 0 168 41" fill="none" xmlns="http://www.w3.org/2000/svg">
<path d="M49.502 28.8524H61.454V25.2524H53.75V11.6924H49.502V28.8524Z" fill="white"/>
<path d="M68.5354 26.4525C66.8314 26.4525 65.9434 24.9645 65.9434 22.7325C65.9434 20.5005 66.8314 18.9885 68.5354 18.9885C70.2394 18.9885 71.1514 20.5005 71.1514 22.7325C71.1514 24.9645 70.2394 26.4525 68.5354 26.4525ZM68.5594 29.2365C72.5194 29.2365 75.1114 26.4285 75.1114 22.7325C75.1114 19.0365 72.5194 16.2285 68.5594 16.2285C64.6234 16.2285 61.9834 19.0365 61.9834 22.7325C61.9834 26.4285 64.6234 29.2365 68.5594 29.2365Z" fill="white"/>
<path d="M81.9652 33.1001C83.7892 33.1001 85.3972 32.6921 86.4772 31.7321C87.4612 30.8441 88.1092 29.5001 88.1092 27.6521V16.5641H84.3652V17.8841H84.3172C83.5972 16.8521 82.4932 16.2041 80.8612 16.2041C77.8132 16.2041 75.7012 18.7481 75.7012 22.3481C75.7012 26.1161 78.2692 28.1801 81.0292 28.1801C82.5172 28.1801 83.4532 27.5801 84.1732 26.7641H84.2692V27.9881C84.2692 29.4761 83.5732 30.3401 81.9172 30.3401C80.6212 30.3401 79.9732 29.7881 79.7572 29.1401H75.9652C76.3492 31.7081 78.5812 33.1001 81.9652 33.1001ZM81.9412 25.2761C80.4772 25.2761 79.5172 24.0761 79.5172 22.2281C79.5172 20.3561 80.4772 19.1561 81.9412 19.1561C83.5732 19.1561 84.4372 20.5481 84.4372 22.2041C84.4372 23.9321 83.6452 25.2761 81.9412 25.2761Z" fill="white"/>
<path d="M95.8079 26.4525C94.1039 26.4525 93.2159 24.9645 93.2159 22.7325C93.2159 20.5005 94.1039 18.9885 95.8079 18.9885C97.5119 18.9885 98.4239 20.5005 98.4239 22.7325C98.4239 24.9645 97.5119 26.4525 95.8079 26.4525ZM95.8319 29.2365C99.7919 29.2365 102.384 26.4285 102.384 22.7325C102.384 19.0365 99.7919 16.2285 95.8319 16.2285C91.8959 16.2285 89.2559 19.0365 89.2559 22.7325C89.2559 26.4285 91.8959 29.2365 95.8319 29.2365Z" fill="white"/>
<path d="M103.526 28.8524H107.438V16.5644H103.526V28.8524ZM103.526 14.8604H107.438V11.6924H103.526V14.8604Z" fill="white"/>
<path d="M109.135 32.9081H113.047V27.5801H113.095C113.863 28.6121 114.991 29.2361 116.575 29.2361C119.791 29.2361 121.927 26.6921 121.927 22.7081C121.927 19.0121 119.935 16.2041 116.671 16.2041C114.991 16.2041 113.791 16.9481 112.951 18.0521H112.879V16.5641H109.135V32.9081ZM115.567 26.2121C113.887 26.2121 112.927 24.8441 112.927 22.8521C112.927 20.8601 113.791 19.3481 115.495 19.3481C117.175 19.3481 117.967 20.7401 117.967 22.8521C117.967 24.9401 117.055 26.2121 115.567 26.2121Z" fill="white"/>
<path d="M128.297 29.2361C131.513 29.2361 133.889 27.8441 133.889 25.1561C133.889 22.0121 131.345 21.4601 129.185 21.1001C127.625 20.8121 126.233 20.6921 126.233 19.8281C126.233 19.0601 126.977 18.7001 127.937 18.7001C129.017 18.7001 129.761 19.0361 129.905 20.1401H133.505C133.313 17.7161 131.441 16.2041 127.961 16.2041C125.057 16.2041 122.657 17.5481 122.657 20.1401C122.657 23.0201 124.937 23.5961 127.073 23.9561C128.705 24.2441 130.193 24.3641 130.193 25.4681C130.193 26.2601 129.449 26.6921 128.273 26.6921C126.977 26.6921 126.161 26.0921 126.017 24.8681H122.321C122.441 27.5801 124.697 29.2361 128.297 29.2361Z" fill="white"/>
<path d="M139.202 29.2125C140.906 29.2125 141.986 28.5405 142.874 27.3405H142.946V28.8525H146.69V16.5645H142.778V23.4285C142.778 24.8925 141.962 25.9005 140.618 25.9005C139.37 25.9005 138.77 25.1565 138.77 23.8125V16.5645H134.882V24.6285C134.882 27.3645 136.37 29.2125 139.202 29.2125Z" fill="white"/>
<path d="M148.393 28.8521H152.305V21.9641C152.305 20.5001 153.025 19.4681 154.249 19.4681C155.425 19.4681 155.977 20.2361 155.977 21.5561V28.8521H159.889V21.9641C159.889 20.5001 160.585 19.4681 161.833 19.4681C163.009 19.4681 163.561 20.2361 163.561 21.5561V28.8521H167.473V20.8601C167.473 18.1001 166.081 16.2041 163.297 16.2041C161.713 16.2041 160.393 16.8761 159.433 18.3641H159.385C158.761 17.0441 157.537 16.2041 155.929 16.2041C154.153 16.2041 152.977 17.0441 152.209 18.3161H152.137V16.5641H148.393V28.8521Z" fill="white"/>
<path fill-rule="evenodd" clip-rule="evenodd" d="M9.52539 3.9504C8.09473 4.95076 6.80103 6.13351 5.67798 7.46493C10.2673 7.03886 16.0978 7.73458 22.867 11.1192C30.0956 14.7334 35.9164 14.8556 39.9674 14.0742C39.5998 12.9613 39.137 11.8917 38.5889 10.8749C33.9516 11.364 28.0066 10.7166 21.0782 7.25251C16.6786 5.05271 12.8004 4.14654 9.52539 3.9504ZM35.88 7.01918C32.2179 2.92753 26.896 0.352539 20.9726 0.352539C19.2331 0.352539 17.5453 0.574646 15.9363 0.992019C18.1155 1.58662 20.4305 2.45652 22.867 3.6748C27.9396 6.21106 32.319 7.02769 35.88 7.01918ZM40.8335 17.9806C35.9395 18.947 29.1814 18.7485 21.0782 14.6969C13.5026 10.9091 7.47309 10.9568 3.40656 11.8605C3.19666 11.9071 2.9917 11.9561 2.79169 12.0071C2.25928 13.165 1.83429 14.3826 1.52936 15.647C1.85504 15.56 2.19159 15.4773 2.53882 15.4001C7.47223 14.3038 14.4427 14.3514 22.867 18.5636C30.4427 22.3514 36.4722 22.3037 40.5388 21.4C40.6781 21.3691 40.8154 21.3371 40.9504 21.3041C40.9652 20.9888 40.9726 20.6715 40.9726 20.3525C40.9726 19.55 40.9254 18.7585 40.8335 17.9806ZM40.2974 25.5248C35.4509 26.3721 28.8896 26.0469 21.0782 22.1413C13.5026 18.3535 7.47309 18.4012 3.40656 19.3049C2.50391 19.5054 1.6919 19.7497 0.975586 20.0076C0.973633 20.1223 0.972656 20.2373 0.972656 20.3525C0.972656 31.3982 9.92695 40.3525 20.9726 40.3525C30.2297 40.3525 38.0179 34.0634 40.2974 25.5248Z" fill="white"/>
</svg>
