<svg width="156" height="169" viewBox="0 0 156 169" fill="none" xmlns="http://www.w3.org/2000/svg">
<path d="M152.41 124.214L123.107 113.941L132.246 127.674L129.233 144.874L152.41 124.214Z" fill="white"/>
<path d="M141.829 123.415C141.931 123.619 141.786 123.961 141.407 124.386C141.208 124.614 140.961 124.854 140.666 125.105C140.522 125.243 140.353 125.387 140.161 125.537L139.884 125.758C139.776 125.836 139.691 125.908 139.583 125.986C139.15 126.297 138.669 126.62 138.139 126.955C138.007 127.039 137.875 127.123 137.718 127.213C137.586 127.296 137.43 127.386 137.273 127.476C136.985 127.649 136.666 127.805 136.329 127.99C135.674 128.331 134.982 128.732 134.2 129.078C133.81 129.252 133.425 129.449 133.01 129.628C132.806 129.73 132.595 129.807 132.391 129.909C132.186 130.011 131.976 130.088 131.741 130.172C128.291 131.587 123.975 132.91 119.079 133.74C118.76 133.793 118.472 133.864 118.147 133.894L117.21 134.024C116.567 134.106 115.954 134.207 115.281 134.271C114.633 134.33 113.96 134.394 113.311 134.453C112.987 134.482 112.638 134.517 112.314 134.547C111.984 134.552 111.635 134.587 111.305 134.592C110.974 134.598 110.626 134.633 110.296 134.638C109.941 134.649 109.617 134.678 109.257 134.666C108.572 134.682 107.881 134.674 107.172 134.697C106.992 134.69 106.818 134.708 106.638 134.702L106.157 134.718C105.797 134.706 105.461 134.687 105.1 134.674C104.74 134.661 104.38 134.648 104.043 134.629C103.683 134.617 103.317 134.58 102.981 134.561C102.62 134.548 102.2 134.499 101.762 134.48C101.527 134.461 101.293 134.443 101.035 134.43C100.777 134.418 100.513 134.381 100.248 134.344C99.6959 134.277 99.0955 134.221 98.465 134.148C98.3089 134.136 98.1528 134.123 97.9666 134.093C97.8046 134.056 97.6244 134.05 97.4623 134.013C97.1201 133.971 96.7719 133.904 96.4056 133.867C93.4937 133.44 89.9037 132.746 85.8345 131.56C84.8142 131.251 83.7698 130.948 82.6836 130.579C82.1374 130.434 81.6033 130.235 81.0452 130.041C80.5112 129.842 79.9471 129.624 79.383 129.407C79.101 129.298 78.819 129.189 78.537 129.08C78.3989 129.038 78.255 128.972 78.111 128.905C77.967 128.839 77.8289 128.796 77.6849 128.73C77.1149 128.488 76.5449 128.247 75.9509 128.011C75.6689 127.902 75.3749 127.746 75.087 127.613C74.799 127.48 74.511 127.347 74.223 127.214C73.6411 126.925 73.0411 126.665 72.4533 126.351C71.8654 126.038 71.2595 125.754 70.6476 125.446C70.5036 125.38 70.3537 125.289 70.2037 125.199C70.0538 125.108 69.9098 125.042 69.7599 124.952C69.46 124.771 69.1661 124.614 68.8421 124.439C68.5423 124.258 68.2243 124.107 67.9244 123.926C67.6246 123.745 67.3247 123.565 67.0248 123.384C66.7249 123.203 66.425 123.022 66.1192 122.817C65.9693 122.727 65.8193 122.636 65.6635 122.522L65.4236 122.377L65.2077 122.226C64.602 121.84 63.9903 121.431 63.3787 121.021C63.2228 120.906 63.0729 120.816 62.917 120.701C62.7611 120.587 62.6111 120.496 62.4553 120.382C62.1494 120.177 61.8617 119.942 61.5499 119.713C61.2381 119.484 60.9323 119.279 60.6446 119.044C60.3568 118.81 60.0451 118.581 59.7573 118.346C59.4696 118.111 59.1578 117.882 58.8641 117.623C58.7082 117.508 58.5523 117.394 58.4205 117.273C58.2646 117.159 58.1268 117.015 57.9709 116.9C57.3835 116.382 56.7781 115.894 56.1907 115.376C55.897 115.117 55.6033 114.858 55.3037 114.575C55.01 114.317 54.7344 114.028 54.4407 113.769C53.2781 112.679 52.1457 111.505 51.0255 110.277C49.9052 109.049 48.8271 107.786 47.7973 106.408C46.7734 105.054 45.7857 103.64 44.8764 102.131C44.631 101.758 44.4337 101.373 44.2124 100.994C43.991 100.615 43.7937 100.23 43.5664 99.8274C43.3692 99.4425 43.1659 99.0336 42.9686 98.6488C42.867 98.4444 42.7713 98.2639 42.6697 98.0595C42.5681 97.855 42.4664 97.6506 42.3889 97.4402C41.6539 95.8109 40.9852 94.1396 40.4306 92.4146C40.2995 91.9879 40.1384 91.5431 40.0073 91.1164C39.9002 90.6837 39.7631 90.2329 39.656 89.8002C39.3878 88.9227 39.2157 88.0214 39.0196 87.1261C38.9065 86.6694 38.8475 86.2248 38.7585 85.7621C38.6755 85.3235 38.6105 84.8548 38.5215 84.3922C38.4625 83.9476 38.3975 83.479 38.3566 83.0044L38.2621 82.3135L38.2445 82.1393L38.2269 81.9651L38.1916 81.6166C38.1507 81.1421 38.1157 80.6915 38.0748 80.217L38.0396 79.8685C38.0339 79.7424 38.0341 79.6403 38.0284 79.5142L38.006 78.8054C37.9951 78.3489 37.9782 77.8684 37.9672 77.4119C37.9803 76.9495 37.9875 76.463 38.0006 76.0006L38.0082 75.3099C38.0268 75.0757 38.0453 74.8416 38.0639 74.6074C38.101 74.139 38.1381 73.6706 38.1753 73.2022C38.1938 72.968 38.2124 72.7338 38.255 72.4937L38.3348 71.7852L38.4145 71.0767L38.4573 70.7344C38.4816 70.6263 38.4999 70.4942 38.5242 70.3862C38.6094 69.9059 38.6765 69.4556 38.7617 68.9754C38.8043 68.7352 38.8229 68.5011 38.8955 68.279L39.0533 67.5766C39.1685 67.1145 39.2597 66.6582 39.3689 66.172C39.4841 65.7098 39.5993 65.2476 39.7385 64.7794C40.2774 62.9369 40.9483 61.1126 41.7813 59.3248C42.6203 57.561 43.6213 55.8336 44.8563 54.2269C46.0913 52.6202 47.5121 51.146 49.1667 49.8947C49.275 49.8168 49.3833 49.739 49.4675 49.6671L49.7924 49.4336C50.009 49.278 50.2075 49.1523 50.4241 48.9967C50.8632 48.7094 51.3563 48.4343 51.8794 48.1773C52.4025 47.9202 53.0097 47.6934 53.6646 47.5568C54.3137 47.3962 55.0346 47.3198 55.7912 47.3876C56.4937 47.4433 57.2261 47.6192 57.9401 47.9272C58.63 48.2411 59.2476 48.675 59.7569 49.1867C60.2662 49.6984 60.6554 50.2398 60.9724 50.7991C61.2894 51.3584 61.5283 51.9115 61.7192 52.4765C62.095 53.5825 62.2606 54.664 62.3482 55.7393C62.4058 56.7965 62.3853 57.8475 62.2387 58.9042C62.202 59.1684 62.1654 59.4325 62.1287 59.6967L62.0983 59.8828L62.0618 60.0449L61.995 60.3931L61.8372 61.0954L61.6734 61.7737C61.6249 61.9898 61.5582 62.2359 61.5097 62.452L61.3219 63.1362C61.2067 63.5984 61.0615 64.0425 60.9163 64.4866C60.3415 66.2871 59.6587 68.0633 58.8319 69.773C58.0051 71.4828 57.0583 73.1202 55.9556 74.6432C51.6228 80.8432 44.7418 85.1995 37.431 85.8611C33.7905 86.2009 30.1765 85.5138 27.0086 84.1551C25.4125 83.4787 23.9491 82.6163 22.5939 81.6762C21.2388 80.7361 19.98 79.6701 18.8655 78.5684C16.5824 76.3529 14.7203 73.8801 13.1886 71.402C11.6509 68.8999 10.4076 66.3505 9.45253 63.8317C9.32711 63.5311 9.21978 63.2006 9.09435 62.9C9.02867 62.7377 8.99297 62.5934 8.92728 62.4311C8.88563 62.2629 8.82589 62.1246 8.78424 61.9563C8.68286 61.6498 8.58148 61.3432 8.48009 61.0367C8.37871 60.7302 8.27733 60.4236 8.19998 60.1111C8.02125 59.4921 7.84846 58.8971 7.67568 58.3021C7.52694 57.7011 7.37819 57.1002 7.22944 56.4992C6.6704 54.1376 6.28534 51.8604 6.01404 49.7336C5.96121 49.211 5.90243 48.6643 5.8496 48.1417C5.79677 47.619 5.77392 47.1145 5.72704 46.6159C5.71562 46.3636 5.68016 46.1173 5.66874 45.865C5.65732 45.6127 5.65184 45.3844 5.64042 45.1322C5.62352 44.6517 5.60663 44.1711 5.59569 43.7147C5.57 41.8587 5.58596 40.1711 5.71568 38.6339C5.74662 38.2436 5.75948 37.8832 5.79637 37.517C5.83326 37.1507 5.8761 36.8084 5.89491 36.4721C5.93775 36.1299 5.96251 35.8177 6.0113 35.4995C6.03606 35.1872 6.08485 34.869 6.13959 34.5748C6.1703 34.2866 6.22503 33.9924 6.26168 33.7282C6.29834 33.4641 6.335 33.1999 6.40164 32.9538C6.48684 32.4735 6.57801 32.0173 6.65702 31.6151C6.73604 31.2129 6.82695 30.8587 6.90573 30.5586C6.98451 30.2585 7.05115 30.0124 7.12374 29.7903C7.25679 29.4003 7.33533 29.2022 7.40744 29.1844C7.46147 29.1965 7.49099 29.4188 7.49003 29.8273C7.48955 30.0315 7.47693 30.2897 7.45217 30.6019C7.42742 30.9142 7.38458 31.2564 7.38363 31.6648C7.35268 32.0551 7.33959 32.5176 7.30841 33.01C7.29579 33.2682 7.28318 33.5265 7.27056 33.7847C7.25795 34.0429 7.25128 34.3252 7.22652 34.6374C7.21985 34.9197 7.1951 35.2319 7.19438 35.5382C7.19367 35.8445 7.17486 36.1808 7.1801 36.5112C7.18533 36.8415 7.16653 37.1778 7.15368 37.5382C7.16486 37.8925 7.152 38.2528 7.16913 38.6313C7.18364 40.1328 7.26384 41.7967 7.40376 43.5988C7.43875 44.0493 7.49777 44.4939 7.5387 44.9685C7.56821 45.1908 7.57963 45.443 7.60914 45.6653C7.6446 45.9117 7.67411 46.1339 7.70957 46.3803C7.78049 46.8729 7.82143 47.3475 7.89829 47.8642C7.96921 48.3569 8.07011 48.8676 8.14698 49.3843C8.50253 51.4391 8.98995 53.6145 9.62134 55.8562C9.78817 56.4272 9.94905 56.9741 10.1218 57.5691C10.3127 58.1341 10.5095 58.7231 10.7004 59.2881C11.1121 60.4362 11.5358 61.6324 12.0496 62.7808C13.0351 65.1134 14.2848 67.4827 15.8111 69.7325C17.3193 72.0123 19.1099 74.1967 21.2195 76.1235C23.3291 78.0504 25.7577 79.7197 28.4758 80.8071C29.8319 81.3388 31.2545 81.7265 32.7074 81.9281C33.0797 81.989 33.44 82.0019 33.8063 82.0388C33.9924 82.0693 34.1726 82.0757 34.3527 82.0821C34.5329 82.0886 34.713 82.095 34.9172 82.0954C35.3016 82.1023 35.656 82.0912 36.0344 82.074C36.4069 82.0329 36.7853 82.0157 37.1578 81.9746C40.1316 81.6212 43.0951 80.505 45.7057 78.7874C47.0231 77.9256 48.2566 76.9315 49.3824 75.811C50.5081 74.6905 51.526 73.4437 52.4421 72.0945C54.2502 69.402 55.6327 66.3301 56.5652 63.0891C56.6683 62.6809 56.8014 62.2908 56.8985 61.8586C57.0015 61.4505 57.1046 61.0423 57.1836 60.6401L57.3112 60.0218L57.4387 59.4034L57.4875 59.0853L57.5239 58.9232L57.5423 58.7911C57.5727 58.605 57.6032 58.4189 57.6096 58.2387C57.6834 57.5062 57.6972 56.7374 57.6208 56.0165C57.5685 55.2897 57.42 54.5866 57.1932 53.9795C56.9664 53.3723 56.6731 52.9092 56.4035 52.6443C56.2716 52.5239 56.1457 52.4275 56.0077 52.3851C55.773 52.5707 55.611 52.5343 55.4308 52.5279C55.2747 52.5155 55.0764 52.5391 54.8601 52.5926C54.6437 52.6462 54.3672 52.7656 54.0906 52.8851C53.82 53.0286 53.5073 53.2081 53.2005 53.4116L52.7252 53.7588L52.4846 53.9204C52.3944 53.9682 52.3342 54.0342 52.2499 54.1061C49.819 56.0343 47.9088 58.7265 46.5805 61.7084C45.9044 63.2023 45.3722 64.7626 44.93 66.3772C44.8269 66.7853 44.7239 67.1935 44.6149 67.5777C44.5358 67.9799 44.4628 68.4061 44.3597 68.8143L44.2321 69.4326C44.1836 69.6487 44.1591 69.8588 44.1286 70.045C44.0796 70.4653 44.0006 70.8675 43.9515 71.2878C43.9272 71.3959 43.927 71.4979 43.9027 71.606L43.9261 71.9064L43.8765 72.5309L43.827 73.1553C43.8025 73.3655 43.778 73.5757 43.7775 73.7799C43.7525 74.1942 43.7275 74.6086 43.7025 75.0229C43.7021 75.2271 43.6775 75.4373 43.6771 75.6415L43.6756 76.2541C43.6747 76.6625 43.6737 77.0709 43.6787 77.5034C43.6778 77.9118 43.7068 78.3382 43.7299 78.7407L43.7225 79.3293C43.7223 79.4314 43.722 79.5335 43.7458 79.6296L43.7691 79.93C43.7982 80.3565 43.8213 80.7589 43.8684 81.1554L43.8917 81.4558L43.9034 81.606L43.915 81.7562L43.9916 82.3749C44.0388 82.7715 44.1159 83.186 44.163 83.5825C44.2342 83.9731 44.3113 84.3877 44.3824 84.7782C44.4536 85.1688 44.5307 85.5834 44.6259 85.968C44.8222 86.7612 44.9886 87.5364 45.2271 88.2937C45.3463 88.6724 45.4415 89.057 45.5607 89.4357C45.6799 89.8143 45.8232 90.187 45.9425 90.5657C46.4434 92.0744 47.0827 93.5233 47.7341 94.9182C47.8057 95.1046 47.8954 95.2609 47.9911 95.4413C48.0868 95.6217 48.1765 95.7781 48.2481 95.9644C48.4335 96.3012 48.5949 96.6439 48.7803 96.9807C48.9657 97.3175 49.1751 97.6483 49.3605 97.9851C49.5459 98.3218 49.7313 98.6586 49.9589 98.9594C50.7906 100.259 51.6586 101.498 52.5868 102.671C53.5209 103.869 54.5093 104.976 55.5218 106.078C56.5283 107.155 57.5769 108.196 58.6617 109.178C58.9254 109.419 59.1891 109.66 59.4827 109.919C59.7464 110.159 60.0342 110.394 60.2979 110.635C60.8434 111.087 61.3889 111.539 61.9343 111.99C62.0662 112.111 62.198 112.231 62.348 112.322C62.4798 112.442 62.6298 112.533 62.7616 112.653C63.0434 112.864 63.3252 113.075 63.583 113.292C63.8647 113.502 64.1465 113.713 64.4043 113.93C64.6801 114.117 64.9619 114.328 65.2377 114.515C65.5136 114.701 65.7954 114.912 66.0712 115.099C66.1971 115.196 66.347 115.286 66.4789 115.406C66.6048 115.503 66.7547 115.593 66.9047 115.684C67.4804 116.051 68.0261 116.401 68.5778 116.775L68.7877 116.901L68.9976 117.028C69.1476 117.118 69.2675 117.191 69.4174 117.281C69.6873 117.444 69.9872 117.625 70.2571 117.788C70.527 117.95 70.8209 118.107 71.0908 118.27C71.3847 118.427 71.6487 118.566 71.9426 118.722C72.2125 118.885 72.5005 119.018 72.7704 119.181C72.9143 119.247 73.0402 119.344 73.1842 119.41C73.3282 119.477 73.4541 119.573 73.5981 119.639C74.15 119.911 74.7019 120.182 75.2539 120.454C75.8058 120.726 76.3517 120.973 76.8977 121.221C77.1557 121.335 77.4437 121.468 77.7017 121.583C77.9596 121.698 78.2476 121.83 78.4997 121.921C79.0397 122.145 79.5738 122.344 80.0897 122.573C80.2278 122.616 80.3477 122.688 80.4858 122.73C80.6238 122.773 80.7437 122.845 80.8818 122.888C81.1338 122.978 81.4158 123.087 81.6679 123.178C82.172 123.359 82.706 123.559 83.2101 123.74C83.7082 123.897 84.2123 124.079 84.7104 124.236C85.6886 124.58 86.667 124.823 87.6033 125.101C91.3546 126.137 94.6385 126.728 97.3103 127.112C97.6525 127.155 97.9707 127.204 98.2889 127.253C98.4451 127.265 98.6071 127.301 98.7633 127.314C98.9194 127.326 99.0755 127.338 99.2076 127.357C99.8081 127.412 100.336 127.486 100.859 127.535C101.117 127.547 101.357 127.59 101.591 127.609C101.826 127.627 102.036 127.652 102.24 127.652C102.654 127.677 103.045 127.708 103.357 127.733C103.693 127.752 104.005 127.776 104.342 127.795C104.678 127.814 104.984 127.815 105.321 127.834C105.657 127.852 105.963 127.853 106.299 127.872L106.786 127.879C106.942 127.891 107.116 127.874 107.272 127.886C107.915 127.906 108.552 127.901 109.188 127.897C109.495 127.897 109.825 127.892 110.131 127.893C110.438 127.894 110.768 127.888 111.068 127.865C111.375 127.866 111.681 127.866 111.981 127.843C112.288 127.844 112.588 127.821 112.888 127.797C113.495 127.775 114.096 127.728 114.702 127.705C115.303 127.659 115.88 127.618 116.48 127.571L117.357 127.507C117.658 127.484 117.928 127.443 118.204 127.425C122.764 126.986 126.844 126.256 130.251 125.49C130.467 125.436 130.69 125.406 130.882 125.359C131.098 125.305 131.291 125.258 131.507 125.204C131.891 125.109 132.3 125.008 132.691 124.937C133.466 124.77 134.181 124.568 134.878 124.395C135.215 124.312 135.551 124.229 135.864 124.151C136.032 124.11 136.176 124.074 136.32 124.038C136.465 124.003 136.609 123.967 136.777 123.925C137.354 123.782 137.907 123.646 138.394 123.551C138.514 123.521 138.634 123.491 138.76 123.485C138.88 123.456 138.976 123.432 139.097 123.402C139.313 123.349 139.535 123.319 139.728 123.271C140.118 123.2 140.467 123.165 140.743 123.148C141.35 123.125 141.728 123.21 141.829 123.415Z" fill="white"/>
<path d="M123.663 132.783C122.173 133.151 120.647 133.478 119.079 133.739C118.983 133.763 118.856 133.768 118.76 133.792C118.568 133.84 118.346 133.869 118.147 133.893L117.21 134.023C117.036 134.04 116.838 134.064 116.669 134.105C116.225 134.164 115.756 134.229 115.312 134.288C114.663 134.347 114.014 134.406 113.365 134.464C113.239 134.47 113.119 134.5 112.993 134.505C112.771 134.535 112.542 134.54 112.344 134.564C112.014 134.569 111.665 134.604 111.335 134.61C111.059 134.627 110.782 134.644 110.506 134.662L110.332 134.679C110.254 134.673 110.206 134.685 110.128 134.679C109.851 134.696 109.575 134.713 109.293 134.707L108.452 134.711C108.043 134.71 107.611 134.715 107.203 134.714C107.149 134.702 107.076 134.72 107.022 134.708C106.92 134.707 106.794 134.713 106.668 134.719L106.158 134.718C105.821 134.699 105.491 134.704 105.131 134.691L105.082 134.703C104.722 134.69 104.362 134.677 104.026 134.658C103.791 134.64 103.557 134.621 103.323 134.603C103.197 134.608 103.089 134.584 102.957 134.566L101.738 134.485C101.582 134.473 101.425 134.46 101.245 134.454L101.011 134.435C100.855 134.423 100.669 134.392 100.513 134.38C100.411 134.38 100.327 134.35 100.224 134.349C99.9062 134.301 99.57 134.282 99.2037 134.245L98.4171 134.159C98.3631 134.147 98.309 134.135 98.2369 134.152C98.1348 134.152 98.0268 134.128 97.9187 134.104C97.7567 134.067 97.5765 134.061 97.4144 134.024C97.0722 133.982 96.724 133.915 96.3577 133.878C94.6886 133.628 93.1157 133.354 91.5009 133.014C89.5859 132.595 87.6591 132.128 85.7925 131.595C85.6004 131.54 85.4084 131.486 85.2104 131.407C84.3821 131.153 83.5299 130.905 82.6657 130.609L82.1135 130.439C81.7534 130.324 81.3874 130.185 81.0273 130.07C80.5772 129.901 80.1272 129.732 79.6771 129.562L79.3651 129.436C79.2271 129.393 79.0831 129.327 78.9451 129.285C78.807 129.242 78.663 129.176 78.525 129.133C78.387 129.091 78.243 129.025 78.099 128.958C77.955 128.892 77.8169 128.849 77.673 128.783L77.151 128.53C76.755 128.373 76.353 128.191 75.957 128.034C75.729 127.938 75.501 127.841 75.267 127.72C75.2071 127.684 75.1531 127.672 75.0931 127.636C74.9791 127.588 74.8351 127.521 74.7211 127.473C74.5471 127.388 74.3731 127.304 74.1992 127.219C74.0552 127.153 73.9112 127.087 73.7612 126.996C73.3293 126.797 72.8673 126.58 72.4294 126.356C72.0815 126.187 71.7276 125.994 71.3796 125.825L70.6237 125.451C70.4797 125.385 70.3357 125.318 70.1799 125.204C70.0299 125.114 69.8859 125.047 69.736 124.957C69.616 124.884 69.472 124.818 69.3521 124.746C69.1722 124.637 68.9982 124.553 68.8183 124.444L67.9006 123.931C67.6906 123.805 67.4748 123.654 67.2408 123.533L67.0009 123.389L66.0953 122.822C65.9454 122.732 65.7955 122.641 65.6396 122.527L65.3997 122.382L65.1838 122.231L64.878 122.026C64.3863 121.689 63.8705 121.357 63.3489 121.002C63.2889 120.966 63.2289 120.929 63.193 120.887C63.103 120.833 62.9831 120.761 62.8871 120.682L62.7672 120.61C62.6472 120.538 62.5513 120.459 62.4254 120.363L62.1915 120.242C61.9697 120.068 61.7298 119.923 61.508 119.748C61.1962 119.519 60.8904 119.314 60.6026 119.079L60.4767 118.983C60.2249 118.79 59.9672 118.573 59.6913 118.387L59.3136 118.097C59.1277 117.965 58.96 117.802 58.7741 117.67L58.3305 117.32C58.2345 117.242 58.1386 117.164 58.0427 117.086C57.9827 117.049 57.9468 117.007 57.8809 116.947C57.5632 116.694 57.2635 116.411 56.9458 116.158C56.6581 115.923 56.3644 115.664 56.1007 115.423L55.2136 114.622C55.0459 114.46 54.884 114.321 54.7162 114.159C54.5844 114.038 54.4825 113.936 54.3507 113.816C53.1521 112.684 51.9957 111.516 50.9414 110.348C49.8333 109.066 48.7433 107.755 47.7613 106.467C46.7015 105.071 45.7319 103.627 44.8404 102.19C44.6369 101.883 44.4515 101.546 44.2661 101.209C44.2242 101.143 44.2123 101.095 44.1704 101.029C43.9491 100.65 43.7577 100.289 43.5364 99.9105L43.5245 99.8624C43.3929 99.6399 43.2494 99.3693 43.1358 99.1168C43.0761 98.9785 42.9923 98.8461 42.9326 98.7079L42.7891 98.4373C42.7353 98.323 42.6815 98.2088 42.6337 98.1186C42.5977 98.0765 42.5799 98.0044 42.5439 97.9622C42.4842 97.824 42.3945 97.6676 42.3347 97.5293C41.4625 95.5513 40.8535 94.0183 40.3765 92.5037C40.3408 92.3595 40.2811 92.2212 40.2454 92.077C40.15 91.7945 40.0486 91.4879 39.9772 91.1995L39.5959 89.8653C39.4112 89.2222 39.2687 88.5432 39.114 87.9182C39.0545 87.6778 39.019 87.4315 38.9655 87.2152C38.8881 86.9027 38.8289 86.5602 38.7756 86.2417C38.7518 86.1456 38.7461 86.0194 38.7163 85.8993C38.2958 85.9523 37.8512 86.0113 37.4306 86.0644C35.6585 86.2224 33.8328 86.1641 32.0438 85.8416C30.3147 85.5553 28.6342 85.0529 27.0082 84.3584C26.2402 84.0383 25.4784 83.6401 24.7106 83.2179C24.0028 82.8318 23.3012 82.3677 22.5936 81.8796C21.2985 80.9757 20.0456 79.9337 18.8652 78.7718C17.7866 77.7122 16.7322 76.5446 15.7562 75.281C14.864 74.1498 13.9901 72.8865 13.1823 71.5813C11.6984 69.1935 10.4551 66.644 9.44627 64.011C9.35678 63.7526 9.24921 63.5241 9.15972 63.2656C9.14187 63.1935 9.09998 63.1273 9.08213 63.0552L9.05239 62.935C8.9986 62.8208 8.96886 62.7006 8.91507 62.5864C8.87342 62.4181 8.81368 62.2798 8.77204 62.1116C8.68255 61.8531 8.58711 61.5706 8.52167 61.3062L8.49192 61.186C8.47407 61.1139 8.45622 61.0418 8.41433 60.9756C8.33079 60.7412 8.27129 60.5008 8.18776 60.2663C8.14016 60.074 8.06258 59.8637 8.01498 59.6714C7.88979 59.2687 7.78864 58.86 7.66346 58.4573L7.21724 56.6545C6.69984 54.4611 6.29074 52.1899 6.00183 49.8889C5.949 49.3663 5.89022 48.8196 5.83739 48.297C5.80217 47.9485 5.77289 47.6241 5.76766 47.2938C5.75005 47.1196 5.73244 46.9453 5.71483 46.7711L5.65652 46.0202L5.64463 45.9722C5.63916 45.7439 5.63368 45.5157 5.60417 45.2934L5.58108 44.8909C5.5699 44.5365 5.56467 44.2062 5.5354 43.8818C5.50424 41.7977 5.53805 40.1821 5.65539 38.801C5.67991 38.5909 5.68039 38.3867 5.7049 38.1765L5.73609 37.6841C5.75465 37.4499 5.79131 37.1858 5.81582 36.9756C5.81606 36.8735 5.84033 36.7654 5.85866 36.6334L5.97504 35.6606C5.99956 35.4505 6.02408 35.2403 6.04859 35.0302C6.07287 34.9221 6.07906 34.8441 6.10334 34.736C6.12785 34.5259 6.15832 34.3398 6.18878 34.1537L6.22544 33.8895C6.26209 33.6253 6.29875 33.3611 6.36539 33.115C6.4506 32.6348 6.54175 32.1785 6.62077 31.7763C6.6817 31.404 6.77857 31.074 6.8633 30.7979L6.86949 30.7198C6.94827 30.4197 7.01491 30.1736 7.0875 29.9516C7.19651 29.5674 7.29908 29.3635 7.34716 29.3516C7.40119 29.3637 7.43069 29.586 7.42974 29.9944C7.42926 30.1986 7.41665 30.4568 7.39189 30.7691C7.39165 30.8712 7.36738 30.9792 7.37309 31.1054C7.34858 31.3155 7.33596 31.5738 7.32334 31.832C7.2924 32.2223 7.2793 32.6847 7.24812 33.1772C7.22956 33.4113 7.21695 33.6696 7.21028 33.9519C7.19766 34.2101 7.19099 34.4923 7.16624 34.8046C7.166 34.9067 7.16576 35.0088 7.14744 35.1409C7.14101 35.3211 7.14053 35.5252 7.11006 35.7114L7.09721 36.0717C7.09673 36.2759 7.09625 36.4801 7.09578 36.6843C7.10149 36.8104 7.08316 36.9425 7.08887 37.0686C7.08839 37.2728 7.06388 37.483 7.06935 37.7113L7.08481 38.8044C7.08171 40.1317 7.15619 41.6694 7.31944 43.7719C7.35442 44.2224 7.41345 44.667 7.45438 45.1416C7.48389 45.3639 7.50744 45.5621 7.51291 45.7903L7.53076 45.8625L7.63119 46.5774C7.60073 46.7635 7.64237 46.9318 7.65998 47.106C7.70734 47.4004 7.73662 47.7248 7.78992 48.0432C7.86084 48.5359 7.96175 49.0466 8.03862 49.5633C8.43582 51.7865 8.92323 53.9618 9.51297 56.0352L10.0135 57.7481C10.1268 58.1027 10.24 58.4574 10.3774 58.806C10.4549 59.0164 10.5385 59.2508 10.592 59.4672C10.9978 60.5912 11.4214 61.7874 11.9412 62.9598C12.9805 65.4067 14.2483 67.746 15.7087 69.9356C16.4867 71.1206 17.3249 72.2397 18.1874 73.2507C19.1277 74.37 20.0983 75.4053 21.1171 76.3266C23.4245 78.4341 25.8533 80.0013 28.3734 81.0102C29.7595 81.56 31.1761 81.9237 32.605 82.1312C32.8452 82.1738 33.1034 82.1865 33.3676 82.2231C33.4697 82.2233 33.6018 82.2417 33.7098 82.2659C33.8659 82.2783 34.0221 82.2907 34.1722 82.279C34.1963 82.2731 34.2263 82.2912 34.2743 82.2793L34.5085 82.2979C34.6106 82.2981 34.7127 82.2983 34.8208 82.3226C35.049 82.3171 35.2773 82.3117 35.4815 82.3121C35.6317 82.3005 35.7878 82.3129 35.938 82.3012L36.0641 82.2955C36.3885 82.2662 36.7129 82.2369 37.0613 82.2017C37.4338 82.1605 37.8243 82.0894 38.2149 82.0182L38.1916 81.7178L38.1682 81.4175C38.133 81.0691 38.1159 80.6907 38.0807 80.3423L38.0455 79.9938C38.0516 79.9158 38.0338 79.8436 38.04 79.7656C38.0281 79.7175 38.0462 79.6875 38.0343 79.6394L38.0119 78.9306C38.0002 78.7805 38.0067 78.6003 37.995 78.4501C37.9957 78.1438 37.9724 77.8435 37.9731 77.5372L38.0064 76.1259L38.0081 75.4112C38.0205 75.255 38.0329 75.0989 38.0452 74.9427C38.0514 74.8647 38.0576 74.7866 38.0638 74.7086L38.1012 74.1381C38.1079 73.8558 38.1445 73.5916 38.1512 73.3094C38.1576 73.1292 38.1881 72.9431 38.2004 72.787C38.2126 72.733 38.2247 72.6789 38.2309 72.6009L38.3106 71.8923L38.4332 70.8416C38.4394 70.7635 38.4456 70.6855 38.4758 70.6015C38.4939 70.5715 38.482 70.5234 38.4941 70.4693C38.5794 69.9891 38.6465 69.5388 38.7317 69.0585C38.7379 68.9804 38.7681 68.8964 38.7743 68.8183C38.7867 68.6622 38.829 68.5242 38.8654 68.3621L39.0232 67.6598C39.102 67.3597 39.1508 67.0415 39.2236 66.7173L39.3388 66.2551C39.3812 66.1171 39.4236 65.9791 39.4419 65.847C39.5147 65.5228 39.6116 65.1927 39.7085 64.8626C39.9869 63.9263 40.2894 62.9841 40.6098 62.114C40.9423 61.1898 41.3288 60.2778 41.7512 59.4079C42.1858 58.484 42.6564 57.6023 43.1447 56.7926C43.6693 55.9229 44.2238 55.0714 44.8262 54.31C46.1214 52.6374 47.5723 51.1813 49.1366 49.9778C49.2449 49.9 49.3532 49.8221 49.4375 49.7503L49.7623 49.5168C49.8285 49.4749 49.8947 49.433 49.9368 49.3971C50.0872 49.2833 50.2436 49.1936 50.394 49.0798C50.9473 48.7388 51.3924 48.4756 51.8494 48.2604C52.4206 47.9915 52.9856 47.8006 53.5144 47.6697C53.5384 47.6638 53.5865 47.6519 53.6106 47.6459C54.3077 47.4734 55.0345 47.421 55.7371 47.4767C56.4937 47.5446 57.226 47.7204 57.8859 48.0163C58.5459 48.3121 59.1876 48.74 59.7028 49.2758C60.1702 49.7213 60.5894 50.2809 60.9423 50.8823C61.2234 51.3994 61.4864 51.9466 61.6891 52.5597C62.0171 53.5755 62.2308 54.645 62.3181 55.8224C62.3817 56.9036 62.3552 57.9306 62.2086 58.9873C62.1598 59.3055 62.1172 59.5457 62.0987 59.7799L62.0682 59.966L61.9649 60.4762L61.8311 61.1726L61.6674 61.8509C61.6372 61.9349 61.631 62.013 61.6008 62.097C61.5584 62.235 61.522 62.3971 61.4856 62.5592L61.2978 63.2434C61.2249 63.5676 61.1221 63.8736 61.0193 64.1797C60.9769 64.3177 60.9346 64.4558 60.8922 64.5938C60.3234 66.4183 59.6165 68.2004 58.8078 69.8802C57.9629 71.62 56.9921 73.2633 55.9315 74.7504C55.2385 75.7637 54.4554 76.7229 53.6065 77.6218C54.4314 76.7288 55.2085 75.7457 55.9315 74.7504C56.9921 73.2633 57.9629 71.62 58.8078 69.8802C59.6165 68.2004 60.3234 66.4183 60.8922 64.5938C60.9346 64.4558 60.9769 64.3177 61.0193 64.1797C61.1221 63.8736 61.219 63.5435 61.2978 63.2434L61.4856 62.5592C61.5279 62.4211 61.5643 62.2591 61.6008 62.097C61.631 62.013 61.6372 61.9349 61.6674 61.8509L61.8311 61.1726L62.0682 59.966L62.0987 59.7799C62.1472 59.5638 62.1839 59.2996 62.2086 58.9873C62.3312 57.9366 62.3817 56.9036 62.3181 55.8224C62.2308 54.645 62.0652 53.5636 61.7132 52.5537C61.5104 51.9407 61.2715 51.3875 60.9663 50.8763C60.6134 50.2749 60.2002 49.7394 59.7509 49.2639C59.2116 48.7341 58.594 48.3002 57.934 48.0044C57.2741 47.7085 56.5658 47.5267 55.7851 47.4648C55.0826 47.4091 54.3557 47.4615 53.6586 47.634C53.0817 47.7768 52.4686 47.9796 51.8494 48.2604C51.3924 48.4756 50.9233 48.7447 50.394 49.0798C50.2436 49.1936 50.0872 49.2833 49.9368 49.3971C49.8947 49.433 49.8285 49.4749 49.7623 49.5168L49.4375 49.7503C49.3292 49.8281 49.2449 49.9 49.1607 49.9718C47.5663 51.1573 46.0974 52.6433 44.8262 54.31C44.2238 55.0714 43.6693 55.9229 43.1447 56.7926C42.6564 57.6023 42.1858 58.484 41.7512 59.4079C41.3528 60.2718 40.9663 61.1839 40.6098 62.114C40.2894 62.9841 39.9869 63.9263 39.7085 64.8626C39.6116 65.1927 39.5388 65.5169 39.4419 65.847C39.4236 65.9791 39.3812 66.1171 39.3388 66.2551L39.2236 66.7173C39.1449 67.0174 39.1201 67.3297 39.0413 67.6298L38.8835 68.3321C38.8471 68.4942 38.8288 68.6263 38.7924 68.7884C38.7862 68.8664 38.756 68.9505 38.7498 69.0285C38.6586 69.4848 38.5974 69.9591 38.5122 70.4394C38.4941 70.4694 38.506 70.5174 38.4939 70.5714C38.4877 70.6495 38.4575 70.7335 38.4513 70.8116L38.4085 71.1538L38.3287 71.8623L38.2309 72.6009C38.2247 72.6789 38.2126 72.733 38.2004 72.787C38.194 72.9672 38.1576 73.1292 38.1512 73.3094C38.1445 73.5916 38.1079 73.8558 38.1012 74.1381L38.0638 74.7086C38.0576 74.7866 38.0514 74.8647 38.0452 74.9427C38.0329 75.0989 38.0205 75.255 38.0081 75.4112L38.0005 76.1018L37.9672 77.5131C37.9664 77.8194 37.9717 78.1498 37.995 78.4501C38.0067 78.6003 38.0002 78.7805 38.0119 78.9306L38.0343 79.6394C38.0462 79.6875 38.0281 79.7175 38.04 79.7656C38.0338 79.8436 38.0457 79.8917 38.0395 79.9698L38.0747 80.3182C38.1099 80.6666 38.133 81.0691 38.1682 81.4175L38.1916 81.7178L38.2149 82.0182C40.0956 81.6803 41.9891 80.982 43.775 80.0552L43.7693 79.9291L43.746 79.6287C43.7281 79.5566 43.7403 79.5026 43.7465 79.4246C43.7405 79.4005 43.7527 79.3465 43.7467 79.3225L43.7241 78.7158C43.7124 78.5656 43.7008 78.4155 43.7132 78.2593C43.7017 78.007 43.6844 77.7307 43.6729 77.4784L43.6851 77.4244C43.686 77.016 43.6929 76.6316 43.6998 76.2473L43.7013 75.6347C43.6956 75.5085 43.7139 75.3765 43.7322 75.2444C43.7384 75.1663 43.7446 75.0882 43.7508 75.0102L43.7696 74.6738C43.7943 74.3616 43.7951 74.0553 43.8258 73.7671C43.8381 73.611 43.8505 73.4548 43.8629 73.2987C43.875 73.2447 43.8631 73.1966 43.8753 73.1426L43.9248 72.5181L44.0231 71.5754C44.0293 71.4973 44.0414 71.4433 44.0476 71.3652C44.0657 71.3352 44.0538 71.2872 44.0719 71.2572L44.2489 70.0143C44.2551 69.9363 44.2613 69.8582 44.2735 69.8042C44.2918 69.6721 44.3101 69.54 44.3285 69.4079L44.456 68.7896C44.535 68.3874 44.6081 67.9611 44.7112 67.553C44.7535 67.4149 44.7719 67.2828 44.8083 67.1208C44.8749 66.8747 44.9356 66.6046 44.9963 66.3344C45.4566 64.6899 45.9828 63.1055 46.6469 61.6656C47.3352 60.1177 48.1372 58.7202 49.053 57.4731C50.0291 56.16 51.1189 54.9974 52.2922 54.0693C52.3524 54.0033 52.4426 53.9555 52.5269 53.8836L52.7675 53.722L53.2428 53.3747C53.5917 53.1353 53.8804 52.9618 54.1329 52.8483C54.4276 52.6989 54.686 52.6094 54.9024 52.5558C54.9264 52.5499 54.9504 52.5439 54.9504 52.5439C55.1187 52.5023 55.2929 52.4847 55.4731 52.4911C55.6533 52.4975 55.8153 52.5339 55.9593 52.6003C56.1033 52.6667 56.2233 52.7391 56.3551 52.8595C56.6488 53.1185 56.948 53.6057 57.1448 54.1947C57.3656 54.7778 57.5141 55.4809 57.5724 56.2317C57.6307 56.9826 57.641 57.7454 57.5612 58.4539C57.5489 58.6101 57.5243 58.8202 57.4939 59.0063L57.4756 59.1384L57.3844 59.5946L57.2147 60.2489L57.0871 60.8672C57.0022 61.2454 56.9231 61.6476 56.8082 62.0077L56.778 62.0917C56.7173 62.3619 56.6325 62.6379 56.5478 62.914C56.5054 63.052 56.4631 63.1901 56.4388 63.2981C55.9725 64.9186 55.3983 66.5149 54.7161 67.9848C54.0219 69.5087 53.2077 70.9602 52.3097 72.2794C51.3815 73.6827 50.3395 74.9355 49.25 75.996C48.1242 77.1165 46.8907 78.1106 45.5733 78.9724C44.9779 79.3494 44.3524 79.7083 43.745 80.0372L43.8685 81.1546L43.9035 81.6051L44.0159 82.3681L44.1872 83.5757C44.2227 83.822 44.2762 84.0384 44.3117 84.2847C44.3533 84.453 44.365 84.6032 44.4066 84.7714C44.4364 84.8916 44.4421 85.0178 44.4718 85.138C44.5132 85.4083 44.5846 85.6968 44.6501 85.9612C44.7096 86.2015 44.7631 86.4179 44.8167 86.6342C44.9535 87.1871 45.0663 87.7459 45.2512 88.2869L45.5849 89.4288C45.6685 89.6632 45.752 89.8977 45.8355 90.1321C45.8953 90.2704 45.931 90.4146 45.9907 90.5529C46.5455 92.1758 47.2385 93.739 47.7823 94.9054C47.842 95.0437 47.8958 95.158 47.9737 95.2662C48.0096 95.3084 48.0215 95.3564 48.0634 95.4226C48.1531 95.579 48.2188 95.7413 48.3085 95.8976L48.3204 95.9457C48.3802 96.084 48.458 96.1923 48.5177 96.3306C48.6253 96.559 48.751 96.7576 48.8585 96.986C49.0439 97.3228 49.2534 97.6536 49.4388 97.9904C49.4806 98.0566 49.5166 98.0987 49.5344 98.1708C49.6779 98.4414 49.8455 98.706 50.013 98.9707C50.8089 100.228 51.7068 101.485 52.641 102.683C53.5392 103.838 54.5335 104.969 55.576 106.089C56.5465 107.124 57.5951 108.166 58.7158 109.189L59.5369 109.93C59.8006 110.171 60.0584 110.388 60.3221 110.628L60.3521 110.646C60.7417 110.984 61.1253 111.297 61.509 111.61L61.9885 112.002C62.0485 112.038 62.0844 112.08 62.1204 112.122C62.2163 112.2 62.2822 112.261 62.3781 112.339L62.534 112.453C62.624 112.508 62.7199 112.586 62.7858 112.646L63.6072 113.285C63.769 113.423 63.9549 113.556 64.1167 113.694L64.4285 113.923C64.6443 114.074 64.8602 114.225 65.0761 114.375L65.2919 114.526C65.5678 114.713 65.8496 114.924 66.1254 115.11C66.2453 115.183 66.3413 115.261 66.4612 115.333L66.5512 115.388C66.6411 115.442 66.7311 115.496 66.827 115.575C66.887 115.611 66.9229 115.653 66.9769 115.665C67.5527 116.033 68.1043 116.406 68.6501 116.756L68.86 116.883L69.0699 117.009C69.2198 117.1 69.3398 117.172 69.4897 117.262C69.6996 117.389 69.9095 117.516 70.1435 117.636L70.6233 117.926C70.8032 118.034 70.9832 118.143 71.1871 118.245L71.541 118.438C71.715 118.523 71.8649 118.613 72.0389 118.698C72.3088 118.861 72.5968 118.993 72.8667 119.156L73.2805 119.385C73.4305 119.476 73.5745 119.542 73.6885 119.591C74.0064 119.741 74.3303 119.916 74.6483 120.067L75.3442 120.405C75.7521 120.61 76.1541 120.792 76.5561 120.973C76.7001 121.039 76.8441 121.105 76.9881 121.172C77.1861 121.25 77.3601 121.335 77.564 121.437L77.792 121.534C77.852 121.57 77.906 121.582 77.966 121.619C78.17 121.721 78.392 121.794 78.596 121.896L78.74 121.963C79.226 122.174 79.706 122.361 80.186 122.549C80.2701 122.579 80.33 122.615 80.414 122.645L80.5821 122.706C80.7261 122.772 80.84 122.82 80.9781 122.863C81.2301 122.954 81.5122 123.062 81.7642 123.153L81.8482 123.183C82.3523 123.365 82.8323 123.552 83.3064 123.715L83.8586 123.885C84.1887 123.981 84.4947 124.084 84.8249 124.181C85.605 124.447 86.3733 124.665 87.1115 124.865C87.3036 124.92 87.5197 124.968 87.7177 125.047C90.8928 125.919 94.0684 126.587 97.4247 127.057L98.4033 127.198C98.5595 127.21 98.7215 127.247 98.8536 127.265C98.9617 127.289 99.0398 127.295 99.1419 127.296C99.1959 127.308 99.244 127.296 99.298 127.308C99.8984 127.364 100.427 127.437 100.949 127.486C101.051 127.486 101.135 127.517 101.213 127.523C101.37 127.535 101.526 127.548 101.658 127.566C101.814 127.578 101.946 127.597 102.072 127.591L102.306 127.609L102.673 127.646C102.955 127.653 103.195 127.696 103.423 127.69C103.555 127.708 103.657 127.709 103.789 127.727C104 127.752 104.204 127.752 104.414 127.777C104.57 127.789 104.726 127.801 104.9 127.784C105.057 127.796 105.237 127.802 105.393 127.815C105.705 127.84 106.035 127.834 106.348 127.859L106.834 127.866C106.936 127.866 107.038 127.867 107.14 127.867C107.195 127.879 107.267 127.861 107.321 127.873L107.579 127.886C108.119 127.905 108.678 127.895 109.218 127.914C109.453 127.932 109.705 127.921 109.933 127.916C110.011 127.922 110.083 127.904 110.161 127.91C110.468 127.911 110.798 127.906 111.104 127.906C111.285 127.913 111.459 127.895 111.639 127.902L112.047 127.902C112.252 127.903 112.426 127.885 112.63 127.886C112.732 127.886 112.858 127.88 112.96 127.881L113.795 127.852C114.126 127.847 114.45 127.818 114.78 127.813C115.129 127.778 115.483 127.766 115.807 127.737C116.06 127.726 116.306 127.69 116.558 127.679L117.435 127.615C117.61 127.597 117.808 127.574 117.982 127.556C118.078 127.532 118.18 127.532 118.306 127.527C120.421 127.309 122.596 127.026 124.753 126.671C126.615 126.363 128.49 126.001 130.353 125.591C130.425 125.573 130.521 125.549 130.593 125.531C130.714 125.502 130.834 125.472 130.954 125.442C131.146 125.395 131.387 125.335 131.579 125.288C131.939 125.198 132.276 125.115 132.643 125.05L132.763 125.02C133.249 124.925 133.7 124.788 134.133 124.681C134.421 124.609 134.662 124.55 134.926 124.485C135.263 124.401 135.599 124.318 135.912 124.241C136.056 124.205 136.2 124.169 136.344 124.133L136.392 124.122C136.537 124.086 136.681 124.05 136.849 124.009C137.426 123.866 137.979 123.729 138.466 123.634L138.832 123.569L139.169 123.485C139.385 123.432 139.607 123.402 139.8 123.355C140.19 123.284 140.539 123.248 140.815 123.231C141.392 123.19 141.746 123.281 141.853 123.51C141.955 123.714 141.81 124.056 141.431 124.482C141.232 124.71 140.985 124.949 140.69 125.201C140.546 125.339 140.377 125.482 140.185 125.632L139.908 125.854C139.824 125.925 139.709 125.979 139.625 126.051L139.601 126.057C139.168 126.368 138.681 126.667 138.157 127.027L138.049 127.104C137.935 127.158 137.851 127.23 137.742 127.308C137.61 127.392 137.454 127.481 137.297 127.571C136.985 127.751 136.666 127.906 136.353 128.085C136.239 128.139 136.107 128.223 135.992 128.277C135.427 128.57 134.868 128.887 134.248 129.168C133.858 129.341 133.473 129.538 133.058 129.717L132.848 129.795C132.709 129.855 132.571 129.914 132.433 129.974C132.295 130.034 132.156 130.094 132.018 130.153C131.946 130.171 131.88 130.213 131.808 130.231C130.004 130.984 128.051 131.646 126.031 132.247C125.226 132.396 124.457 132.586 123.663 132.783ZM38.7163 85.8993C38.7461 86.0194 38.7518 86.1456 38.7756 86.2417C38.8289 86.5602 38.8822 86.8786 38.9655 87.2152C39.025 87.4555 39.0845 87.6959 39.114 87.9182C39.2506 88.5732 39.3872 89.2281 39.5959 89.8653L39.9472 91.1814C40.0426 91.4639 40.144 91.7705 40.2154 92.0589C40.2511 92.2031 40.3109 92.3414 40.3465 92.4856C40.8235 94.0003 41.4325 95.5332 42.3048 97.5112C42.3704 97.6735 42.4302 97.8118 42.514 97.9442C42.5499 97.9863 42.5677 98.0584 42.6037 98.1005C42.6575 98.2148 42.7053 98.305 42.7591 98.4192L42.9026 98.6898C42.9623 98.8281 43.0461 98.9604 43.1058 99.0987C43.2194 99.3512 43.3869 99.6158 43.5245 99.8624L43.5364 99.9105C43.7577 100.289 43.925 100.656 44.1464 101.035C44.1882 101.101 44.2242 101.143 44.2661 101.209C44.4455 101.522 44.6069 101.865 44.8104 102.172C45.7079 103.633 46.6774 105.077 47.7313 106.449C48.7192 107.76 49.8033 109.048 50.9595 110.318C52.0138 111.486 53.1462 112.66 54.3507 113.816C54.4825 113.936 54.5844 114.038 54.7162 114.159C54.884 114.321 55.0518 114.484 55.2136 114.622L56.1247 115.417C56.4124 115.652 56.6821 115.917 56.9458 116.158C57.2635 116.411 57.5632 116.694 57.8809 116.947C57.9468 117.007 57.9827 117.049 58.0427 117.086C58.1386 117.164 58.2586 117.236 58.3545 117.314L58.7741 117.67C58.96 117.802 59.1218 117.941 59.3136 118.097L59.7154 118.381C59.9731 118.598 60.2009 118.796 60.4767 118.983L60.6026 119.079C60.9144 119.308 61.2202 119.513 61.508 119.748C61.7298 119.923 61.9697 120.068 62.1915 120.242L62.4373 120.411C62.5573 120.483 62.6532 120.562 62.7791 120.658L62.899 120.731C62.995 120.809 63.0849 120.863 63.2049 120.935C63.2648 120.972 63.3248 121.008 63.3608 121.05C63.8765 121.381 64.3622 121.695 64.878 122.026L65.1838 122.231L65.4056 122.406L65.6396 122.527C65.7895 122.617 65.9454 122.732 66.0953 122.822L67.0009 123.389L67.2408 123.533C67.4507 123.66 67.6906 123.805 67.9006 123.931L68.8183 124.444C68.9982 124.553 69.1722 124.637 69.3521 124.746C69.472 124.818 69.616 124.884 69.736 124.957C69.8859 125.047 70.0299 125.114 70.1799 125.204C70.3538 125.288 70.5038 125.379 70.6237 125.451L71.3796 125.825C71.7276 125.994 72.0815 126.187 72.4294 126.356C72.8673 126.58 73.3293 126.797 73.7612 126.996C73.9052 127.063 74.0492 127.129 74.1932 127.195C74.3672 127.28 74.5352 127.34 74.7092 127.425C74.8232 127.473 74.9672 127.539 75.0812 127.588C75.1411 127.624 75.1952 127.636 75.2552 127.672C75.4831 127.769 75.7171 127.89 75.9451 127.986C76.3411 128.143 76.7431 128.324 77.1391 128.481L77.6791 128.705C77.8231 128.771 77.9612 128.814 78.1052 128.88C78.2492 128.947 78.3931 129.013 78.5312 129.055C78.6692 129.098 78.8132 129.164 78.9572 129.231C79.0952 129.273 79.2392 129.339 79.3773 129.382L79.6893 129.508C80.1393 129.678 80.5894 129.847 81.0394 130.016C81.3995 130.131 81.7656 130.27 82.1257 130.385L82.6838 130.579C83.5479 130.875 84.4002 131.123 85.2284 131.377C85.4205 131.432 85.6126 131.486 85.8046 131.541C87.6772 132.098 89.604 132.565 91.513 132.96C93.1038 133.306 94.7007 133.574 96.3698 133.824C96.7421 133.885 97.0843 133.928 97.4265 133.97C97.5886 134.007 97.7688 134.013 97.9309 134.05C98.0389 134.074 98.141 134.074 98.2491 134.098C98.3031 134.111 98.3571 134.123 98.4292 134.105L99.2158 134.191C99.5821 134.228 99.9003 134.276 100.237 134.295C100.339 134.295 100.423 134.326 100.525 134.326C100.711 134.356 100.867 134.369 101.023 134.381L101.257 134.4C101.438 134.406 101.594 134.419 101.75 134.431L102.969 134.512C103.095 134.506 103.227 134.524 103.335 134.549C103.569 134.567 103.803 134.586 104.032 134.58C104.392 134.593 104.752 134.606 105.089 134.625L105.137 134.613C105.473 134.632 105.803 134.627 106.164 134.639L106.704 134.659C106.806 134.659 106.932 134.653 107.059 134.648C107.107 134.636 107.185 134.642 107.239 134.654C107.647 134.655 108.08 134.65 108.488 134.651L109.329 134.647C109.611 134.654 109.887 134.636 110.164 134.619C110.236 134.601 110.29 134.613 110.368 134.619L110.542 134.602C110.818 134.584 111.095 134.567 111.377 134.574C111.707 134.568 112.056 134.533 112.386 134.528C112.614 134.522 112.837 134.493 113.035 134.469C113.137 134.47 113.257 134.44 113.383 134.434C114.032 134.376 114.705 134.311 115.354 134.253C115.822 134.188 116.267 134.129 116.712 134.07C116.886 134.052 117.084 134.028 117.252 133.987L118.19 133.857C118.376 133.887 118.592 133.834 118.79 133.81C118.886 133.786 119.007 133.757 119.109 133.757C121.458 133.354 123.753 132.837 125.989 132.181C128.015 131.603 129.962 130.917 131.772 130.189C131.844 130.171 131.91 130.129 131.982 130.111C132.12 130.052 132.259 129.992 132.397 129.932C132.535 129.872 132.673 129.813 132.812 129.753L133.022 129.675C133.413 129.502 133.798 129.305 134.213 129.126C134.832 128.845 135.421 128.546 135.956 128.235C136.095 128.175 136.203 128.097 136.317 128.043C136.63 127.864 136.949 127.708 137.261 127.529C137.418 127.439 137.574 127.35 137.706 127.266C137.815 127.188 137.905 127.14 138.013 127.062L138.121 126.985C138.651 126.649 139.156 126.32 139.565 126.015L139.583 125.985C139.692 125.907 139.782 125.859 139.866 125.787L140.143 125.566C140.335 125.416 140.504 125.272 140.648 125.135C140.961 124.853 141.208 124.613 141.389 124.416C141.768 123.99 141.913 123.648 141.811 123.444C141.71 123.239 141.356 123.148 140.773 123.165C140.497 123.182 140.148 123.217 139.758 123.289C139.559 123.312 139.367 123.36 139.127 123.419L138.79 123.503L138.448 123.562C138.063 123.657 137.625 123.74 137.168 123.853C137.048 123.883 136.927 123.913 136.807 123.942C136.663 123.978 136.519 124.014 136.351 124.055L136.302 124.067C136.158 124.103 136.014 124.139 135.87 124.174C135.557 124.252 135.221 124.335 134.884 124.418C134.62 124.484 134.355 124.549 134.091 124.615C133.658 124.722 133.202 124.835 132.721 124.954L132.601 124.984C132.24 125.073 131.904 125.156 131.537 125.221C131.345 125.269 131.128 125.322 130.936 125.37C130.816 125.4 130.672 125.436 130.551 125.465C130.479 125.483 130.383 125.507 130.311 125.525C128.448 125.935 126.574 126.297 124.711 126.605C122.554 126.96 120.379 127.243 118.265 127.461C118.162 127.46 118.066 127.484 117.94 127.49C117.766 127.507 117.568 127.531 117.393 127.549L116.516 127.613C116.264 127.624 116.018 127.66 115.766 127.671C115.441 127.7 115.087 127.711 114.738 127.747C114.408 127.752 114.084 127.781 113.753 127.786L112.918 127.814C112.816 127.814 112.69 127.82 112.588 127.82C112.39 127.843 112.21 127.837 112.005 127.836L111.597 127.835C111.417 127.829 111.243 127.847 111.062 127.84C110.756 127.839 110.426 127.845 110.125 127.868C110.047 127.862 109.975 127.88 109.897 127.873C109.669 127.879 109.417 127.89 109.183 127.872C108.642 127.852 108.083 127.863 107.543 127.844L107.285 127.831C107.231 127.819 107.159 127.837 107.105 127.825C107.002 127.825 106.9 127.824 106.798 127.824L106.306 127.793C105.994 127.768 105.687 127.768 105.375 127.743C105.219 127.73 105.015 127.73 104.859 127.718C104.702 127.705 104.552 127.717 104.372 127.71C104.168 127.71 103.958 127.685 103.748 127.661C103.621 127.667 103.513 127.642 103.387 127.648C103.153 127.629 102.895 127.617 102.631 127.58L102.27 127.567L102.036 127.549C101.904 127.53 101.754 127.542 101.622 127.524C101.466 127.511 101.334 127.493 101.177 127.481C101.099 127.474 100.997 127.474 100.913 127.444C100.415 127.389 99.8684 127.345 99.262 127.266C99.208 127.254 99.1599 127.266 99.1059 127.254C99.0038 127.253 98.9198 127.223 98.8177 127.223C98.6616 127.211 98.5235 127.168 98.3674 127.156L97.3766 127.069C93.9963 126.605 90.8207 125.937 87.6696 125.059C87.4776 125.004 87.2615 124.956 87.0694 124.901C86.3252 124.677 85.5629 124.483 84.7827 124.217C84.4767 124.114 84.1465 124.017 83.8164 123.921L83.2643 123.751C82.7902 123.588 82.3102 123.401 81.8061 123.219L81.7221 123.189C81.47 123.098 81.188 122.989 80.936 122.899C80.822 122.851 80.6839 122.808 80.5399 122.742L80.3719 122.681C80.2879 122.651 80.2279 122.615 80.1439 122.585C79.6639 122.397 79.1779 122.186 78.6978 121.999L78.5538 121.932C78.3318 121.86 78.1278 121.757 77.9239 121.655C77.8698 121.642 77.8099 121.606 77.7499 121.57L77.5219 121.473C77.3239 121.395 77.1499 121.31 76.9459 121.208C76.8019 121.141 76.658 121.075 76.514 121.009C76.112 120.827 75.71 120.646 75.3021 120.441L74.6062 120.103C74.2882 119.952 73.9703 119.801 73.6463 119.626C73.5323 119.578 73.3884 119.512 73.2325 119.397L72.8186 119.168C72.5546 119.029 72.2607 118.872 71.9908 118.71C71.8409 118.619 71.6669 118.535 71.4929 118.45L71.169 118.275C70.9891 118.167 70.8092 118.058 70.6052 117.956L70.1314 117.69C69.9215 117.564 69.7115 117.437 69.4776 117.316C69.3276 117.226 69.2077 117.154 69.0578 117.063L68.8419 116.913L68.632 116.786C68.0863 116.436 67.5105 116.069 66.9589 115.695C66.8989 115.659 66.8629 115.617 66.8089 115.605C66.719 115.55 66.629 115.496 66.5331 115.418L66.4431 115.363C66.3232 115.291 66.2273 115.213 66.1073 115.14C65.8315 114.954 65.5497 114.743 65.2738 114.556L65.058 114.405C64.8421 114.255 64.6263 114.104 64.4104 113.953L64.0986 113.724C63.9368 113.586 63.7509 113.453 63.5891 113.315L62.7677 112.676C62.6778 112.622 62.5819 112.544 62.5159 112.483L62.3781 112.339C62.2822 112.261 62.1682 112.212 62.0963 112.128C62.0604 112.086 62.0004 112.05 61.9405 112.014L61.4609 111.622C61.0772 111.309 60.6876 110.972 60.304 110.658L60.274 110.64C60.0163 110.423 59.7526 110.183 59.4889 109.942L58.6737 109.225C57.577 108.196 56.5044 107.16 55.5338 106.125C54.4914 105.005 53.4971 103.874 52.5989 102.718C51.6647 101.521 50.7668 100.264 49.9709 99.0066C49.8034 98.7419 49.6358 98.4773 49.4923 98.2067C49.4504 98.1405 49.4145 98.0984 49.3966 98.0263C49.2112 97.6895 49.0018 97.3587 48.8164 97.022C48.6848 96.7994 48.5832 96.595 48.4756 96.3665C48.4158 96.2282 48.338 96.1199 48.2783 95.9817L48.2664 95.9336C48.1767 95.7772 48.111 95.6149 48.0213 95.4585C48.0094 95.4105 47.9734 95.3683 47.9375 95.3262C47.8837 95.212 47.7999 95.0796 47.7402 94.9413C47.1964 93.7749 46.5033 92.2117 45.9486 90.5888C45.8888 90.4505 45.8531 90.3063 45.7934 90.168C45.7099 89.9336 45.6263 89.6992 45.5428 89.4647L45.2091 88.3229C45.0482 87.7759 44.9114 87.2231 44.7746 86.6702C44.721 86.4539 44.6615 86.2135 44.608 85.9971C44.5425 85.7327 44.4711 85.4443 44.4297 85.1739C44.4 85.0537 44.3943 84.9276 44.3645 84.8074C44.3229 84.6391 44.3112 84.4889 44.2695 84.3207C43.7586 84.5237 43.2476 84.7267 42.7306 84.9056C41.4623 85.3471 40.0922 85.6863 38.7163 85.8993ZM38.7163 85.8993C39.4072 85.8048 40.1043 85.6322 40.7774 85.4656C41.9793 85.1682 43.1574 84.7745 44.3117 84.2847C44.2762 84.0384 44.2227 83.822 44.1872 83.5757L44.0159 82.3681L43.9035 81.6051L43.8685 81.1546L43.775 80.0552C42.3077 80.8266 40.7929 81.4056 39.2785 81.7805C38.9179 81.8697 38.5574 81.959 38.1908 82.0242L38.2144 82.2224L38.232 82.3966L38.3265 83.0875C38.3677 83.46 38.4088 83.8325 38.4681 84.175L38.5095 84.4453L38.6985 85.8271C38.7044 85.8512 38.7163 85.8993 38.7163 85.8993ZM7.34716 29.3516C7.29908 29.3635 7.17247 29.5734 7.06346 29.9575C7.00896 30.1496 6.92423 30.4257 6.8395 30.7017L6.83332 30.7798C6.74859 31.0559 6.67575 31.38 6.59078 31.7582C6.51176 32.1604 6.41465 32.5926 6.33539 33.0969C6.2747 33.367 6.23806 33.6313 6.19545 33.8714L6.1588 34.1356C6.12834 34.3217 6.10382 34.5318 6.07335 34.7179C6.07311 34.82 6.04288 34.9041 6.01861 35.0121C5.98814 35.1982 5.96363 35.4084 5.93912 35.6185L5.85866 36.6334C5.85842 36.7355 5.83415 36.8435 5.81582 36.9756C5.79131 37.1858 5.75465 37.4499 5.73609 37.6841L5.7049 38.1765C5.68039 38.3867 5.67991 38.5909 5.65539 38.801C5.56209 40.1762 5.52828 41.7917 5.5354 43.8818C5.54063 44.2122 5.57585 44.5606 5.58108 44.8909L5.60417 45.2934C5.60964 45.5216 5.61512 45.7499 5.64463 45.9722L5.65652 46.0202L5.71483 46.7711C5.73244 46.9453 5.75005 47.1196 5.76766 47.2938C5.79693 47.6182 5.80812 47.9726 5.83739 48.297C5.89022 48.8196 5.94305 49.3422 6.00183 49.8889C6.29074 52.1899 6.69984 54.4611 7.21724 56.6545L7.66346 58.4573C7.76461 58.866 7.88979 59.2687 8.01498 59.6714C8.06258 59.8637 8.14016 60.074 8.18776 60.2663C8.24726 60.5067 8.33079 60.7412 8.41433 60.9756C8.43218 61.0477 8.45003 61.1198 8.49192 61.186L8.52167 61.3062C8.61115 61.5646 8.70659 61.8472 8.77204 62.1116C8.81368 62.2798 8.87342 62.4181 8.91507 62.5864C8.96886 62.7006 8.9986 62.8208 9.05239 62.935L9.08213 63.0552C9.09998 63.1273 9.14187 63.1935 9.15972 63.2656C9.24326 63.5001 9.33274 63.7585 9.44627 64.011C10.4551 66.644 11.6984 69.1935 13.1823 71.5813C13.9901 72.8865 14.858 74.1258 15.7562 75.281C16.7263 76.5205 17.7866 77.7122 18.8652 78.7718C20.0456 79.9337 21.3284 80.9938 22.5936 81.8796C23.3012 82.3677 24.0028 82.8318 24.7106 83.2179C25.4784 83.6401 26.2402 84.0383 27.0082 84.3584C30.3502 85.8016 33.9644 86.3866 37.4306 86.0644C37.8571 86.0354 38.3017 85.9764 38.7163 85.8993C38.7104 85.8752 38.7044 85.8512 38.6985 85.8271L38.4674 84.4812L38.426 84.2109C38.3848 83.8384 38.3436 83.466 38.2844 83.1235L38.1723 82.2583L38.1487 82.0601C37.7582 82.1313 37.3916 82.1965 36.9951 82.2436C36.6707 82.2729 36.3464 82.3021 35.9979 82.3373L35.8718 82.3431C35.7216 82.3547 35.5655 82.3424 35.4153 82.354C35.1871 82.3595 34.9829 82.359 34.7546 82.3645C34.6525 82.3642 34.5504 82.364 34.4424 82.3397L34.2503 82.2852C34.2263 82.2912 34.2203 82.2671 34.1722 82.279C34.0161 82.2666 33.8419 82.2843 33.6798 82.2479C33.5718 82.2236 33.4456 82.2293 33.3376 82.205C33.1034 82.1864 32.8392 82.1498 32.575 82.1131C31.1461 81.9056 29.7295 81.5419 28.3434 80.9921C25.8292 80.0073 23.3945 78.416 21.0871 76.3085C20.0683 75.3872 19.0977 74.3519 18.1574 73.2326C17.289 72.1975 16.4507 71.0785 15.6727 69.8935C14.2124 67.7039 12.9446 65.3646 11.9112 62.9417C11.4155 61.7634 10.9678 60.5732 10.562 59.4491C10.4845 59.2387 10.425 58.9983 10.3474 58.7879C10.2341 58.4333 10.1208 58.0787 9.98348 57.73L9.48298 56.0172C8.89324 53.9437 8.40584 51.7684 8.00864 49.5453C7.93177 49.0286 7.83086 48.5178 7.75994 48.0252C7.70663 47.7067 7.67736 47.3823 7.63 47.0879C7.61239 46.9137 7.58883 46.7155 7.54718 46.5472L7.44675 45.8322L7.4289 45.7601C7.39939 45.5378 7.37583 45.3396 7.37036 45.1113C7.32943 44.6368 7.27041 44.1922 7.23542 43.7417C7.07812 41.6632 7.02768 40.1195 7.00079 38.7741L6.98534 37.681C6.97987 37.4528 6.98034 37.2486 7.00486 37.0384C6.99915 36.9123 7.01748 36.7802 7.01177 36.6541C7.01225 36.4499 7.01272 36.2457 7.0132 36.0415L7.02605 35.6812C7.02653 35.4769 7.03295 35.2968 7.06342 35.1106C7.06366 35.0085 7.08198 34.8764 7.08222 34.7743C7.08889 34.4921 7.1196 34.2039 7.12626 33.9216C7.13293 33.6393 7.14554 33.3811 7.16411 33.1469C7.19529 32.6545 7.23837 32.2102 7.23932 31.8017C7.25194 31.5435 7.26456 31.2853 7.28907 31.0751C7.3074 30.9431 7.30765 30.841 7.30788 30.7389C7.33264 30.4266 7.34525 30.1684 7.34573 29.9642C7.40666 29.592 7.42522 29.3578 7.34716 29.3516ZM54.9024 52.5558C54.8783 52.5618 54.8602 52.5918 54.8602 52.5918C54.6439 52.6453 54.3914 52.7588 54.0908 52.8842C53.8383 52.9978 53.5496 53.1713 53.2007 53.4107L52.7254 53.7579L52.4848 53.9195C52.3946 53.9674 52.3344 54.0333 52.2501 54.1052C51.0768 55.0334 49.981 56.1719 49.0109 57.509C48.0951 58.7561 47.2749 60.1836 46.6047 61.7016C45.9647 63.1355 45.4145 64.7258 44.9542 66.3704C44.8935 66.6405 44.8268 66.8866 44.7661 67.1567C44.7238 67.2947 44.7055 67.4268 44.6631 67.5649C44.5841 67.9671 44.511 68.3933 44.4079 68.8015L44.2804 69.4198C44.262 69.5519 44.2437 69.684 44.2254 69.8161C44.2192 69.8942 44.213 69.9722 44.2009 70.0262L44.0238 71.2691C44.0057 71.2991 44.0176 71.3471 43.9995 71.3771C43.9874 71.4312 43.9812 71.5092 43.9691 71.5632L43.9262 71.9055L43.8767 72.53L43.8031 73.1604C43.791 73.2144 43.8029 73.2625 43.7908 73.3166C43.7784 73.4727 43.766 73.6288 43.7536 73.7849C43.7289 74.0972 43.7282 74.4035 43.6975 74.6917L43.6727 75.004C43.6665 75.082 43.6603 75.1601 43.6541 75.2381C43.6358 75.3702 43.6415 75.4964 43.6232 75.6285L43.6218 76.2411C43.6149 76.6255 43.6139 77.0339 43.607 77.4182L43.5949 77.4723C43.6063 77.7246 43.6237 78.0008 43.6351 78.2531C43.6467 78.4033 43.6584 78.5535 43.646 78.7096L43.7227 79.3284C43.7346 79.3765 43.7405 79.4005 43.7465 79.4246C43.7403 79.5026 43.7281 79.5566 43.7219 79.6347L43.7569 80.0852C44.3643 79.7563 44.9898 79.3975 45.5852 79.0205C46.9026 78.1587 48.1361 77.1645 49.2619 76.0441C50.3455 74.9595 51.3874 73.7067 52.3216 72.3275C53.2196 71.0083 54.0338 69.5567 54.728 68.0328C55.4042 66.5389 55.9844 64.9667 56.4507 63.3462C56.4931 63.2082 56.5354 63.0701 56.5597 62.9621C56.6444 62.686 56.7051 62.4159 56.7899 62.1398L56.8201 62.0558C56.905 61.6776 57.0141 61.2935 57.099 60.9153L57.2266 60.297L57.4394 59.1984L57.4577 59.0663C57.4882 58.8802 57.5186 58.694 57.5251 58.5139C57.5988 57.7813 57.6186 57.0366 57.5363 56.2917C57.478 55.5408 57.3295 54.8378 57.1086 54.2547C56.9177 53.6897 56.6126 53.1784 56.3189 52.9195C56.1871 52.7991 56.0671 52.7267 55.9231 52.6603C55.7732 52.5699 55.6111 52.5335 55.431 52.527C55.2508 52.5206 55.0947 52.5082 54.9024 52.5558Z" fill="white"/>
</svg>
