<svg width="28" height="28" viewBox="0 0 28 28" fill="none" xmlns="http://www.w3.org/2000/svg">
<path d="M25.8647 11.51C26.0531 11.0708 26.0755 10.5781 25.9279 10.1236C25.7802 9.66905 25.4725 9.28362 25.062 9.03898L22.815 7.69964C22.7892 7.68429 22.7668 7.66386 22.7492 7.63959C22.7315 7.61533 22.719 7.58773 22.7123 7.55848L22.129 5.00581C22.0244 4.5395 21.7535 4.12725 21.367 3.84617C20.9805 3.5651 20.5048 3.43444 20.029 3.47865L17.425 3.71198C17.365 3.71397 17.3062 3.69545 17.2582 3.65948L15.2877 1.93281C14.9284 1.61974 14.468 1.44727 13.9915 1.44727C13.515 1.44727 13.0546 1.61974 12.6953 1.93281L10.7318 3.66998C10.7104 3.69101 10.6844 3.70672 10.6558 3.71584C10.6273 3.72496 10.5969 3.72723 10.5673 3.72248L7.95983 3.48914C7.48431 3.44528 7.00909 3.57612 6.62303 3.85718C6.23696 4.13825 5.96648 4.55031 5.86216 5.01631L5.27883 7.56898C5.27217 7.59809 5.25977 7.62557 5.24233 7.64981C5.2249 7.67405 5.2028 7.69457 5.17733 7.71015L2.935 9.03898C2.52446 9.28362 2.21676 9.66905 2.06911 10.1236C1.92147 10.5781 1.94393 11.0708 2.13233 11.51L3.16716 13.9145C3.17868 13.9416 3.18462 13.9708 3.18462 14.0002C3.18462 14.0297 3.17868 14.0589 3.16716 14.086L2.13233 16.4893C1.94393 16.9285 1.92147 17.4212 2.06911 17.8757C2.21676 18.3302 2.52446 18.7157 2.935 18.9603L5.182 20.2996C5.20777 20.315 5.23016 20.3354 5.24781 20.3597C5.26546 20.384 5.27799 20.4116 5.28466 20.4408L5.868 22.9935C5.9719 23.4602 6.24261 23.8729 6.62929 24.1541C7.01597 24.4353 7.492 24.5656 7.968 24.5206L10.572 24.2873C10.6322 24.2835 10.6917 24.3022 10.7388 24.3398L12.7093 26.0665C13.0687 26.3793 13.529 26.5516 14.0055 26.5516C14.4819 26.5516 14.9423 26.3793 15.3017 26.0665L17.271 24.3398C17.2934 24.3204 17.3196 24.3057 17.3479 24.2967C17.3761 24.2877 17.406 24.2845 17.4355 24.2873L20.043 24.5206C20.5189 24.5654 20.9949 24.4349 21.3815 24.1537C21.7681 23.8726 22.0389 23.46 22.143 22.9935L22.7263 20.4408C22.733 20.4117 22.7454 20.3842 22.7628 20.36C22.7803 20.3357 22.8024 20.3152 22.8278 20.2996L25.076 18.965C25.4865 18.7203 25.7942 18.3349 25.9419 17.8804C26.0895 17.4259 26.0671 16.9332 25.8787 16.494L24.8438 14.0895C24.8323 14.0626 24.8263 14.0336 24.8263 14.0043C24.8263 13.975 24.8323 13.9461 24.8438 13.9191L25.8647 11.51ZM23.2233 14.7766L24.2582 17.18C24.2787 17.2287 24.2811 17.2832 24.2648 17.3335C24.2485 17.3839 24.2147 17.4267 24.1695 17.4541L21.919 18.7888C21.6893 18.926 21.4899 19.1085 21.3329 19.325C21.1759 19.5416 21.0645 19.7879 21.0055 20.0488L20.4222 22.6015C20.4112 22.6536 20.3812 22.6998 20.3381 22.731C20.295 22.7623 20.2418 22.7764 20.1888 22.7706L17.5813 22.5303C17.3155 22.505 17.0473 22.5345 16.7934 22.6172C16.5396 22.6999 16.3054 22.8339 16.1055 23.011L14.135 24.7365C14.0956 24.7719 14.0445 24.7915 13.9915 24.7915C13.9385 24.7915 13.8874 24.7719 13.848 24.7365L11.8775 23.011C11.5161 22.6968 11.0532 22.524 10.5743 22.5245C10.516 22.5245 10.4577 22.5245 10.4017 22.5245L7.79416 22.7648C7.74126 22.7703 7.68819 22.7561 7.64512 22.7249C7.60206 22.6937 7.57204 22.6476 7.56083 22.5956L6.9775 20.043C6.91849 19.7819 6.80697 19.5355 6.64972 19.3189C6.49247 19.1023 6.29279 18.92 6.06283 18.783L3.8275 17.4565C3.78229 17.429 3.74846 17.3862 3.73218 17.3359C3.71591 17.2856 3.71827 17.231 3.73883 17.1823L4.77366 14.7801C4.87909 14.5336 4.93344 14.2683 4.93344 14.0002C4.93344 13.7321 4.87909 13.4668 4.77366 13.2203L3.73883 10.817C3.71827 10.7682 3.71591 10.7137 3.73218 10.6634C3.74846 10.6131 3.78229 10.5703 3.8275 10.5428L6.078 9.20815C6.30765 9.07093 6.50705 8.8885 6.66408 8.67191C6.8211 8.45532 6.9325 8.20908 6.9915 7.94815L7.57483 5.39548C7.58506 5.34297 7.61484 5.2963 7.65815 5.2649C7.70146 5.2335 7.75507 5.21971 7.80816 5.22631L10.4157 5.46664C10.6814 5.49041 10.9491 5.46006 11.2028 5.37745C11.4565 5.29484 11.6907 5.16166 11.8915 4.98598L13.855 3.26631C13.8944 3.23089 13.9455 3.2113 13.9985 3.2113C14.0515 3.2113 14.1026 3.23089 14.142 3.26631L16.1137 4.99181C16.5222 5.34091 17.0525 5.51376 17.5883 5.47248L20.1958 5.23215C20.249 5.22526 20.3027 5.23893 20.3461 5.27038C20.3895 5.30183 20.4192 5.34867 20.4292 5.40131L21.0125 7.95398C21.0715 8.21506 21.183 8.46141 21.3403 8.67803C21.4975 8.89464 21.6972 9.07699 21.9272 9.21398L24.1765 10.5486C24.2217 10.5761 24.2555 10.6189 24.2718 10.6692C24.2881 10.7196 24.2857 10.7741 24.2652 10.8228L23.2303 13.2261C23.1244 13.4711 23.0691 13.735 23.0679 14.0018C23.0667 14.2687 23.1196 14.5331 23.2233 14.779V14.7766Z" fill="white"/>
<path d="M17.9855 10.426L12.718 15.8136L9.90046 13.793C9.71156 13.6579 9.47674 13.6034 9.24766 13.6415C9.01859 13.6795 8.81402 13.8071 8.67896 13.996C8.54389 14.1849 8.48941 14.4197 8.52748 14.6488C8.56554 14.8778 8.69306 15.0824 8.88196 15.2175L12.3143 17.6675C12.4838 17.7896 12.6916 17.8468 12.8997 17.8286C13.1079 17.8104 13.3025 17.718 13.4483 17.5683L19.2361 11.644C19.3209 11.5628 19.3885 11.4655 19.4349 11.3576C19.4813 11.2498 19.5056 11.1338 19.5062 11.0164C19.5068 10.8991 19.4839 10.7828 19.4386 10.6745C19.3934 10.5662 19.3268 10.4681 19.2429 10.386C19.159 10.304 19.0594 10.2397 18.9501 10.1969C18.8408 10.1541 18.724 10.1338 18.6067 10.1371C18.4894 10.1404 18.3739 10.1672 18.2672 10.216C18.1605 10.2649 18.0647 10.3347 17.9855 10.4213V10.426Z" fill="white"/>
</svg>
