<svg width="81" height="81" viewBox="0 0 81 81" fill="none" xmlns="http://www.w3.org/2000/svg">
<g clip-path="url(#clip0_196_499)">
<path d="M40.9324 35.4326C39.0683 35.4326 37.4727 36.7689 37.1459 38.6045C36.8191 40.4394 37.8552 42.2451 39.6045 42.8883V46.0777C39.6045 46.7196 40.1245 47.2395 40.7664 47.2395C41.4083 47.2395 41.9283 46.7196 41.9283 46.0777V42.9933C43.7924 42.4934 44.9971 40.6897 44.7448 38.7763C44.4933 36.8636 42.862 35.4333 40.9324 35.4326ZM40.9324 40.8012C40.0914 40.8012 39.41 40.1197 39.41 39.2788C39.41 38.4378 40.0914 37.7564 40.9324 37.7564C41.7733 37.7564 42.4548 38.4378 42.4548 39.2788C42.4541 40.1191 41.7727 40.8005 40.9324 40.8012Z" fill="url(#paint0_linear_196_499)"/>
<path d="M9.57405 37.1145C9.40158 36.3598 9.00737 35.6738 8.44328 35.1441C6.72832 33.446 3.96235 33.4545 2.25842 35.1642C0.554486 36.8733 0.554486 39.6393 2.25842 41.3491C3.96235 43.0582 6.72832 43.0673 8.44328 41.3685C8.97365 40.8284 9.36203 40.1651 9.57405 39.4383H22.6738V45.7457H15.6072C14.9653 45.7457 14.3746 46.2216 14.3746 46.8629V53.879H10.3022C10.0889 53.1586 9.70048 52.5025 9.17141 51.9695C7.90772 50.6844 5.99307 50.2908 4.32609 50.9736C2.65847 51.6557 1.56855 53.2786 1.56855 55.0804C1.56855 56.8822 2.65847 58.5051 4.32609 59.1879C5.99307 59.8706 7.90772 59.477 9.17141 58.192C9.73614 57.6551 10.1297 56.9626 10.3022 56.2027H15.6072C15.899 56.2183 16.1842 56.11 16.3924 55.9038C16.5999 55.6983 16.7114 55.4143 16.6984 55.1219V48.0695H22.6738V53.1722C22.6849 53.8284 23.21 54.3594 23.8662 54.3769H31.637V60.1864H24.6112C24.3123 60.1805 24.0244 60.2979 23.815 60.5112C23.6049 60.7239 23.4927 61.0143 23.5038 61.3126V66.6176C22.7471 66.7901 22.0592 67.1836 21.5262 67.7484C19.8164 69.4659 19.8203 72.2429 21.5353 73.9553C23.2496 75.6676 26.0272 75.6676 27.7422 73.9553C29.4565 72.2429 29.4604 69.4659 27.7506 67.7484C27.2131 67.2186 26.5524 66.8303 25.8275 66.6176V62.5101H32.8696C33.5114 62.5101 33.9608 61.9545 33.9608 61.3126V54.3769H40.2682V67.3425C39.5465 67.5597 38.8891 67.9487 38.3509 68.4765C37.0847 69.7363 36.7028 71.6354 37.3842 73.2868C38.0656 74.9382 39.6756 76.0158 41.4618 76.0158C43.2488 76.0158 44.8587 74.9382 45.5401 73.2868C46.2216 71.6354 45.8397 69.7363 44.5734 68.4765C44.0372 67.9137 43.3486 67.5195 42.592 67.3425V54.3769H48.0694V61.3126C48.0493 61.9538 48.5531 62.49 49.195 62.5101H55.8707V66.6176C55.1465 66.8303 54.4858 67.2186 53.9476 67.7484C52.6703 69.0108 52.2819 70.9189 52.964 72.5801C53.6461 74.2412 55.2638 75.3253 57.0598 75.3253C58.8552 75.3253 60.4729 74.2412 61.155 72.5801C61.8371 70.9189 61.4487 69.0108 60.1714 67.7484C59.6391 67.1836 58.9511 66.7901 58.1945 66.6176V61.3126C58.2055 61.0143 58.0933 60.7239 57.8839 60.5112C57.6745 60.2979 57.386 60.1805 57.0877 60.1864H50.3932V54.3769H57.832C58.4882 54.3594 59.0134 53.8284 59.0244 53.1722V48.0695H65.1658V55.1219C65.1529 55.4143 65.2644 55.6983 65.4719 55.9038C65.68 56.11 65.9653 56.2183 66.2577 56.2027H71.5627C71.7345 56.9633 72.1281 57.6557 72.6928 58.1932C73.5137 59.0245 74.6315 59.4952 75.7992 59.5004C76.9669 59.5062 78.0893 59.0465 78.9172 58.2237C79.7426 57.3996 80.2069 56.2818 80.2069 55.1154C80.2069 53.949 79.7426 52.8312 78.9172 52.0071C77.2081 50.2805 74.424 50.263 72.6928 51.9682C72.1637 52.5012 71.7754 53.158 71.5627 53.879H67.4896V46.8629C67.4896 46.2216 66.8989 45.7457 66.2577 45.7457H59.0244V39.4383H72.2902C72.5022 40.1651 72.8912 40.8284 73.421 41.3685C74.682 42.6406 76.5863 43.0258 78.2429 42.3437C79.8995 41.6616 80.9804 40.0478 80.9804 38.2563C80.9804 36.4649 79.8995 34.8511 78.2429 34.169C76.5863 33.4869 74.682 33.872 73.421 35.1441C72.8569 35.6738 72.4627 36.3598 72.2902 37.1145H59.0244V31.6371H66.2577C66.8989 31.6371 67.4896 31.18 67.4896 30.5381V23.8358H71.5627C71.7747 24.5646 72.1631 25.2292 72.6928 25.7718C74.413 27.4952 77.2042 27.4972 78.9263 25.7757C80.6484 24.0549 80.6484 21.2637 78.9263 19.5429C77.2042 17.8221 74.413 17.824 72.6928 19.5474C72.1618 20.1005 71.7734 20.7748 71.5627 21.512H66.2577C65.9594 21.5081 65.6729 21.6281 65.466 21.8427C65.2598 22.0573 65.1509 22.3478 65.1658 22.6454V29.3133H59.0244V25.0379C59.0134 24.3824 58.4876 23.852 57.832 23.8358H53.049V18.2215C53.049 11.4136 47.5896 5.87512 40.8491 5.87512C34.1086 5.87512 28.6493 11.4136 28.6493 18.2215V23.8358H23.8662C23.2107 23.852 22.6849 24.3824 22.6738 25.0379V29.3133H16.6984V22.6454C16.7133 22.3478 16.605 22.0573 16.3982 21.8427C16.1914 21.6281 15.9048 21.5081 15.6072 21.512H10.3022C10.0908 20.7748 9.70243 20.1005 9.17141 19.5474C7.45515 17.8441 4.68464 17.8506 2.97682 19.5623C1.269 21.2741 1.269 24.0452 2.97682 25.7569C4.68464 27.4686 7.45515 27.4751 9.17141 25.7718C9.70178 25.2292 10.0902 24.5646 10.3022 23.8358H14.3746V30.5381C14.3746 31.18 14.9653 31.6371 15.6072 31.6371H22.6738V37.1145H9.57405ZM6.80029 39.7054C5.98918 40.5172 4.67362 40.5172 3.86185 39.7054C3.05073 38.8943 3.05073 37.5788 3.86185 36.7677C4.67362 35.9565 5.98918 35.9565 6.80029 36.7677C7.61012 37.5794 7.61012 38.8937 6.80029 39.7054ZM7.52777 56.5905C6.71665 57.4009 5.40239 57.4009 4.59192 56.5898C3.78145 55.7787 3.78145 54.4644 4.59192 53.654C5.40239 52.8428 6.71665 52.8422 7.52777 53.6527C8.33824 54.4644 8.33824 55.7787 7.52777 56.5905ZM26.0798 72.3298C25.2686 73.1396 23.9544 73.1396 23.1439 72.3285C22.3334 71.518 22.3334 70.2031 23.1439 69.3927C23.9544 68.5815 25.2686 68.5815 26.0798 69.3914C26.4727 69.7797 26.6938 70.3088 26.6938 70.8606C26.6938 71.4123 26.4727 71.9414 26.0798 72.3298ZM42.9654 73.0573C42.1537 73.869 40.8387 73.869 40.027 73.0573C39.2159 72.2462 39.2159 70.9306 40.027 70.1195C40.8387 69.3084 42.1537 69.3084 42.9654 70.1195C43.7752 70.9313 43.7752 72.2455 42.9654 73.0573ZM59.1651 70.8606C59.1651 71.8506 58.4655 72.7026 57.4942 72.8958C56.523 73.089 55.5504 72.569 55.1718 71.6542C54.7925 70.7393 55.1128 69.6844 55.9355 69.1339C56.759 68.5841 57.856 68.6918 58.5569 69.3914C58.9473 69.7804 59.1664 70.3095 59.1651 70.8606ZM74.3365 53.6527C75.1476 52.8416 76.4631 52.8416 77.2743 53.6527C78.0854 54.4638 78.0854 55.7793 77.2743 56.5905C76.4631 57.4022 75.1476 57.4022 74.3365 56.5905C73.9448 56.2021 73.725 55.673 73.725 55.1219C73.725 54.5701 73.9448 54.0417 74.3365 53.6527ZM75.0639 36.7677C75.8751 35.9565 77.1906 35.9565 78.0017 36.7677C78.8135 37.5788 78.8135 38.8943 78.0017 39.7054C77.1906 40.5172 75.8751 40.5172 75.0639 39.7054C74.671 39.3177 74.4499 38.7886 74.4499 38.2369C74.4499 37.6845 74.671 37.1554 75.0639 36.7677ZM74.3365 21.1762C75.1476 20.365 76.4631 20.365 77.2743 21.1762C78.0854 21.9879 78.0854 23.3028 77.2743 24.1146C76.4631 24.9257 75.1476 24.9257 74.3365 24.1146C73.9448 23.7256 73.725 23.1971 73.725 22.6454C73.725 22.0936 73.9448 21.5652 74.3365 21.1762ZM7.52777 24.1146C6.71601 24.9257 5.4011 24.9257 4.58933 24.1146C3.77821 23.3028 3.77821 21.9879 4.58933 21.1762C5.4011 20.365 6.71601 20.365 7.52777 21.1762C8.33759 21.9879 8.33759 23.3022 7.52777 24.1146ZM30.9731 18.2215C30.9731 12.6941 35.3904 8.1989 40.8491 8.1989C46.3078 8.1989 50.7252 12.6947 50.7252 18.2215V23.8358H30.9731V18.2215ZM24.9976 26.1596H56.7006V52.0531H24.9976V26.1596Z" fill="url(#paint1_linear_196_499)"/>
</g>
<defs>
<linearGradient id="paint0_linear_196_499" x1="37.1648" y1="41.2459" x2="44.6993" y2="41.259" gradientUnits="userSpaceOnUse">
<stop stop-color="#4D51AB"/>
<stop offset="1" stop-color="#55CEE3"/>
</linearGradient>
<linearGradient id="paint1_linear_196_499" x1="1.80114" y1="40.4099" x2="80.1596" y2="40.647" gradientUnits="userSpaceOnUse">
<stop stop-color="#4D51AB"/>
<stop offset="1" stop-color="#55CEE3"/>
</linearGradient>
<clipPath id="clip0_196_499">
<rect width="80" height="80" fill="white" transform="translate(0.980469 0.89978)"/>
</clipPath>
</defs>
</svg>
