<svg width="61" height="60" viewBox="0 0 61 60" fill="none" xmlns="http://www.w3.org/2000/svg">
<g clip-path="url(#clip0_196_532)">
<path d="M55.4668 4.62109H5.53265C2.75396 4.62109 0.5 6.97942 0.5 9.86596V50.1225C0.5 53.009 2.75396 55.3674 5.53265 55.3674H55.4668C58.246 55.3674 60.5 53.009 60.5 50.1225V18.6084C60.5 18.6043 60.5 18.6002 60.5 18.5967C60.5 18.5926 60.5 18.5891 60.5 18.5851V9.86596C60.5 6.97942 58.246 4.62109 55.4668 4.62109ZM5.53265 6.71065H55.4668C57.0934 6.71065 58.4104 8.13147 58.4104 9.86596V17.6062H2.58955V9.86596C2.58955 8.13147 3.90602 6.71065 5.53265 6.71065ZM55.4668 53.2778H5.53265C3.90602 53.2778 2.58955 51.857 2.58955 50.1225V19.6957H58.4104V50.1225C58.4104 51.857 57.0934 53.2778 55.4668 53.2778Z" fill="white"/>
<path d="M16.1857 15.7998C18.2303 15.7998 19.8937 14.0781 19.8937 11.9612C19.8937 9.84481 18.2297 8.12256 16.1857 8.12256C14.141 8.12256 12.4771 9.84481 12.4771 11.9612C12.4771 14.0775 14.141 15.7998 16.1857 15.7998ZM16.1857 10.2121C17.0777 10.2121 17.8041 10.9969 17.8041 11.9612C17.8041 12.9261 17.0777 13.7102 16.1857 13.7102C15.293 13.7102 14.5666 12.9261 14.5666 11.9612C14.5666 10.9969 15.293 10.2121 16.1857 10.2121Z" fill="white"/>
<path d="M24.8408 15.7998C26.8855 15.7998 28.5489 14.0781 28.5489 11.9612C28.5489 9.84481 26.8855 8.12256 24.8408 8.12256C22.7962 8.12256 21.1328 9.84481 21.1328 11.9612C21.1328 14.0775 22.7962 15.7998 24.8408 15.7998ZM24.8408 10.2121C25.7334 10.2121 26.4593 10.9969 26.4593 11.9612C26.4593 12.9261 25.7334 13.7102 24.8408 13.7102C23.9488 13.7102 23.2224 12.9261 23.2224 11.9612C23.2224 10.9969 23.9482 10.2121 24.8408 10.2121Z" fill="white"/>
<path d="M7.53029 15.7998C9.57495 15.7998 11.2377 14.0781 11.2377 11.9612C11.2377 9.84481 9.57495 8.12256 7.53029 8.12256C5.48505 8.12256 3.82227 9.84481 3.82227 11.9612C3.82227 14.0775 5.48505 15.7998 7.53029 15.7998ZM7.53029 10.2121C8.42231 10.2121 9.14818 10.9969 9.14818 11.9612C9.14818 12.9261 8.4229 13.7102 7.53029 13.7102C6.6371 13.7102 5.91182 12.9261 5.91182 11.9612C5.91182 10.9969 6.63768 10.2121 7.53029 10.2121Z" fill="white"/>
<path d="M40.6459 28.0794L30.9689 23.3301C30.6774 23.1878 30.3363 23.1878 30.0448 23.3301L20.3573 28.066C19.9947 28.2391 19.7615 28.6018 19.7539 29.0035V38.0631C19.7539 40.559 21.3864 43.6158 23.4491 45.022L29.9032 49.4192C30.2606 49.6611 30.7293 49.6611 31.0867 49.4192L37.5495 45.0226C39.6122 43.6163 41.2459 40.5601 41.2459 38.0636V29.0169C41.2394 28.6163 41.0074 28.2537 40.6459 28.0794ZM21.8435 38.0636V29.6553L29.4158 25.9548L29.4455 46.5775L24.6227 43.2963C23.1226 42.2736 21.8435 39.8774 21.8435 38.0636ZM39.1569 38.0636C39.1569 39.8774 37.8731 42.2736 36.3735 43.2963L31.5508 46.5798L31.5415 25.9333L39.1569 29.6681V38.0636Z" fill="white"/>
</g>
<defs>
<clipPath id="clip0_196_532">
<rect width="60" height="60" fill="white" transform="translate(0.5 -0.00585938)"/>
</clipPath>
</defs>
</svg>
