<svg width="60" height="60" viewBox="0 0 60 60" fill="none" xmlns="http://www.w3.org/2000/svg">
<g clip-path="url(#clip0_196_542)">
<path d="M25.7243 17.5845H25.7323C29.1924 17.5845 32.0059 14.7372 32.004 11.2719C32.0003 7.80194 29.1948 4.98615 25.7248 4.96973H25.7224C22.2388 4.9702 19.4151 7.79443 19.416 11.278C19.4165 14.7616 22.2407 17.5849 25.7239 17.5845H25.7243ZM22.4754 8.00937C23.3347 7.1407 24.5056 6.65169 25.7276 6.65169H25.7295C28.2839 6.65122 30.3554 8.7213 30.3563 11.2757C30.3568 13.8306 28.2867 15.902 25.7323 15.9025H25.7243C23.8617 15.8875 22.1891 14.7574 21.48 13.0346C20.7709 11.3118 21.1627 9.33186 22.4754 8.00937Z" fill="white"/>
<path d="M41.1749 13.3796H41.2612C42.9188 13.3759 44.5045 12.7038 45.6595 11.5151C47.4287 9.69799 47.9431 6.99999 46.9665 4.6596C45.9899 2.31874 43.711 0.786011 41.1749 0.764893H41.1716C37.7115 0.764893 34.898 3.61213 34.8994 7.0779C34.9013 10.5371 37.7157 13.3796 41.1749 13.3796ZM41.1777 2.44686H41.1796C43.7227 2.46235 45.7754 4.53007 45.7731 7.0732C45.7853 8.28728 45.3136 9.45677 44.4618 10.3222C43.6199 11.1941 42.4617 11.6902 41.2495 11.6977H41.1749C38.6205 11.6972 36.5499 9.62572 36.5509 7.07086C36.5513 4.51646 38.6228 2.44639 41.1777 2.44686Z" fill="white"/>
<path d="M10.273 13.3796H10.2763C13.7299 13.3796 16.4593 10.6188 16.5795 7.10746V7.08634C16.5795 3.62714 13.7369 0.764893 10.273 0.764893H10.2702C6.81008 0.764893 3.99664 3.61213 3.99805 7.07836C3.99992 10.5371 6.81478 13.3796 10.273 13.3796ZM10.2759 2.44686H10.2782C12.8171 2.46422 14.867 4.52538 14.8708 7.06429C14.8187 9.64684 12.8016 11.6977 10.2759 11.6977H10.273C7.71865 11.6972 5.6481 9.62572 5.64904 7.07086C5.64998 4.51646 7.72146 2.44639 10.2759 2.44686Z" fill="white"/>
<path d="M51.4201 28.6074V23.8036C51.4337 21.4623 50.5148 19.212 48.8666 17.5493C47.2185 15.8866 44.9762 14.9484 42.6348 14.9414H39.8613C36.2754 14.9569 33.0419 17.1035 31.6359 20.4026C30.274 19.5832 28.7154 19.1491 27.1264 19.1463H24.3392C22.7535 19.1477 21.1977 19.5781 19.8368 20.3909C18.4467 17.0974 15.2245 14.9522 11.6499 14.9414H8.88898C4.02189 14.9414 0 18.9051 0 23.7755V32.4655C0.0220571 32.9423 0.413452 33.3191 0.890728 33.3229H15.4981V36.7C15.4991 36.9219 15.5892 37.1341 15.7473 37.2899C15.9059 37.4452 16.1199 37.5311 16.3419 37.5278H28.2339C27.6135 39.2778 27.2982 41.1212 27.3014 42.9782C27.3014 51.9986 34.6403 59.3413 43.6607 59.3413C52.6816 59.3413 59.9998 52.0038 59.9998 42.9834C60.0186 36.9736 56.7185 31.4438 51.4201 28.6074ZM39.8613 16.6234H42.6334C44.5284 16.6299 46.3432 17.3907 47.676 18.7376C49.0093 20.0849 49.7513 21.9072 49.7381 23.8022V27.8129C47.936 27.0474 45.7871 26.6251 43.625 26.6251C40.9369 26.6199 38.2896 27.2844 35.922 28.5586V28.0381C35.9361 25.6949 35.0134 23.4432 33.3587 21.7833C33.2484 21.673 33.1433 21.5623 33.0283 21.4581C34.0692 18.5752 36.7963 16.6459 39.8613 16.6234ZM1.68197 31.6409V23.7769C1.68197 19.8343 4.94781 16.6234 8.89039 16.6234H11.648C14.6998 16.6398 17.4133 18.5677 18.4336 21.4435C18.32 21.5458 18.2074 21.6524 18.099 21.7608C16.4306 23.4122 15.4939 25.663 15.4981 28.0104V31.6409H1.68197ZM17.1801 35.8458V28.0118C17.1848 24.0552 20.3844 20.8457 24.3411 20.8283H27.125C29.0224 20.832 30.839 21.597 32.1671 22.9519C33.507 24.3039 34.2532 26.1337 34.24 28.0367V29.5962C31.9644 31.1885 30.1374 33.3412 28.9365 35.8458H17.1801ZM43.6607 57.6621C35.5545 57.6621 28.9834 51.0905 28.9834 42.9843C28.9834 34.8781 35.5545 28.307 43.6607 28.307C51.7669 28.307 58.3385 34.8781 58.3385 42.9843C58.3291 51.0868 51.7631 57.6527 43.6607 57.6621Z" fill="white"/>
<path d="M52.3522 40.5453C52.1598 39.8831 51.8909 39.2453 51.5506 38.6451L52.5995 37.3799C52.8754 37.0471 52.8543 36.5591 52.5498 36.2517L50.4389 34.1187C50.1324 33.8095 49.6401 33.785 49.3046 34.0629L48.0342 35.1164C47.4335 34.7781 46.7962 34.5092 46.1344 34.3139L45.9744 32.6512C45.9336 32.2185 45.5722 31.8858 45.1372 31.8811H42.1097C41.6747 31.8858 41.3133 32.2185 41.2725 32.6512L41.113 34.3078C40.4489 34.5003 39.8102 34.7692 39.209 35.1099L37.9424 34.0615C37.6082 33.7846 37.1188 33.8076 36.8118 34.114L34.6746 36.247C34.3673 36.5544 34.3443 37.0448 34.6216 37.3794L35.6733 38.6479C35.3359 39.2482 35.067 39.8845 34.8718 40.5448L33.2048 40.7053C32.7721 40.7466 32.4408 41.108 32.4375 41.5426V44.5658C32.4408 45.0003 32.7721 45.3617 33.2048 45.403L34.8657 45.563C35.0585 46.2257 35.3284 46.8635 35.6691 47.4632L34.6211 48.7284C34.3438 49.0631 34.3673 49.5539 34.6746 49.8604L36.8118 51.9934C37.1192 52.2998 37.6092 52.3223 37.9428 52.0455L39.2132 50.9923C39.8144 51.3302 40.4517 51.5996 41.1134 51.7944L41.2735 53.4571C41.3143 53.8903 41.6752 54.2225 42.1102 54.2272H45.1381C45.5727 54.2225 45.9341 53.8903 45.9749 53.4571L46.1349 51.8C46.799 51.6081 47.4377 51.3387 48.0389 50.998L49.305 52.0469C49.6392 52.3233 50.1291 52.3007 50.436 51.9938L52.5728 49.8609C52.8806 49.5539 52.9036 49.0631 52.6263 48.7289L51.5746 47.4599C51.912 46.8597 52.1814 46.2233 52.3766 45.5626L54.0182 45.4025C54.4499 45.3608 54.7803 44.9999 54.7836 44.5658V41.5426C54.7803 41.1084 54.449 40.7466 54.0163 40.7058L52.3522 40.5453ZM53.1017 43.8032L51.6342 43.9458C51.2714 43.981 50.972 44.2452 50.8917 44.6005C50.6932 45.4828 50.338 46.3219 49.8419 47.0779C49.6406 47.3863 49.6636 47.7899 49.8982 48.0733L50.842 49.2118L49.7893 50.2626L48.6494 49.3179C48.3641 49.0814 47.9577 49.0593 47.6489 49.2639C46.8975 49.7614 46.0594 50.1138 45.178 50.3025C44.8185 50.3841 44.552 50.6873 44.5172 51.0538L44.3741 52.5453H42.8733L42.7297 51.0538C42.695 50.6873 42.4275 50.386 42.068 50.3072C41.1852 50.1105 40.3452 49.7557 39.5891 49.2597C39.2813 49.0617 38.88 49.0851 38.598 49.3188L37.4581 50.2626L36.4059 49.2118L37.3496 48.0733C37.5866 47.7875 37.6082 47.3802 37.4027 47.0709C36.9038 46.3209 36.5504 45.4842 36.3599 44.6038C36.2792 44.2457 35.9774 43.9806 35.6123 43.9458L34.1195 43.8022V42.3061L35.6123 42.162C35.9751 42.1273 36.275 41.8631 36.3557 41.5074C36.5537 40.6255 36.9094 39.786 37.405 39.0304C37.6064 38.7216 37.5834 38.3185 37.3487 38.0345L36.4054 36.896L37.4581 35.8457L38.5975 36.7909C38.8828 37.0274 39.2893 37.049 39.5985 36.8449C40.3499 36.3469 41.188 35.9945 42.0694 35.8058C42.4289 35.7242 42.6954 35.4215 42.7302 35.0545L42.8733 33.5631H44.3741L44.5172 35.055C44.5524 35.421 44.8199 35.7228 45.1794 35.8012C46.0622 35.9978 46.9017 36.3526 47.6583 36.8486C47.9661 37.0471 48.3669 37.0232 48.6494 36.79L49.7851 35.8486L50.8185 36.8927L49.8715 38.035C49.6345 38.3208 49.6129 38.7282 49.8189 39.0374C50.3173 39.7874 50.6712 40.6241 50.8612 41.5045C50.9424 41.8621 51.2437 42.1278 51.6093 42.1625L53.1017 42.3066V43.8032Z" fill="white"/>
<path d="M43.6132 36.8047C40.1625 36.8089 37.3683 39.6092 37.3711 43.0595C37.3739 46.5103 40.1728 49.3059 43.6236 49.3045C47.0743 49.303 49.8709 46.5051 49.8709 43.0543C49.8648 39.6022 47.0654 36.8061 43.6132 36.8047ZM43.6132 47.6225C41.0912 47.6183 39.0502 45.5707 39.0531 43.0492C39.0559 40.5272 41.102 38.4848 43.6236 38.4867C46.1456 38.4881 48.1889 40.5328 48.1889 43.0543C48.1837 45.5782 46.1371 47.6215 43.6132 47.6225Z" fill="white"/>
</g>
<defs>
<clipPath id="clip0_196_542">
<rect width="60" height="60" fill="white" transform="translate(0 -0.00585938)"/>
</clipPath>
</defs>
</svg>
