<svg width="61" height="60" viewBox="0 0 61 60" fill="none" xmlns="http://www.w3.org/2000/svg">
<g clip-path="url(#clip0_196_553)">
<path d="M26.748 8.95835H34.2515C34.7305 8.95835 35.1186 8.57028 35.1186 8.09123C35.1186 7.61219 34.7305 7.22412 34.2515 7.22412H26.748C26.2694 7.22412 25.8809 7.61219 25.8809 8.09123C25.8809 8.57028 26.2694 8.95835 26.748 8.95835Z" fill="white"/>
<path d="M30.5004 47.6199C28.7463 47.6199 27.3242 49.0415 27.3242 50.7956C27.3242 52.5496 28.7463 53.9718 30.5004 53.9718C32.2545 53.9718 33.6761 52.5501 33.6761 50.7961C33.6742 49.0425 32.2535 47.6218 30.5004 47.6199ZM30.5004 52.2375C29.7039 52.2375 29.0584 51.592 29.0584 50.7956C29.0584 49.9996 29.7039 49.3541 30.5004 49.3541C31.2964 49.3541 31.9419 49.9996 31.9419 50.7961C31.9409 51.5916 31.2964 52.2366 30.5004 52.2375Z" fill="white"/>
<path d="M39.5808 22.5647L30.868 18.279C30.6295 18.1609 30.3498 18.1609 30.1113 18.279L21.4154 22.5526C21.1261 22.7016 20.949 23.005 20.9616 23.3307V31.5078C20.9616 33.7375 22.3779 36.4685 24.221 37.7251L30.0251 41.6935C30.1664 41.7912 30.3343 41.8439 30.5066 41.8439C30.6798 41.8439 30.8492 41.7917 30.9919 41.6935L36.7801 37.7251C38.6237 36.4685 40.0381 33.7375 40.0381 31.5078V23.3433C40.0492 23.0171 39.8711 22.7137 39.5808 22.5647ZM22.6958 31.5078V23.8717L29.639 20.4579L29.6448 39.3345L25.2052 36.2929C23.8334 35.3575 22.6958 33.1665 22.6958 31.5078ZM38.3038 31.5078C38.3038 33.1665 37.173 35.3575 35.8017 36.2929L31.3514 39.337L31.3108 20.4381L38.3038 23.8833V31.5078Z" fill="white"/>
<path d="M54.05 30.8841C54.4841 32.4698 56.0243 33.4903 57.654 33.2711C59.2837 33.0519 60.5002 31.6612 60.5002 30.017C60.5002 28.3728 59.2837 26.9821 57.654 26.7629C56.0243 26.5437 54.4841 27.5637 54.05 29.1499H46.3559V25.6814H50.1693C50.66 25.6674 51.0534 25.2706 51.063 24.7795V21.222H53.5086C53.6663 21.7721 53.9562 22.2754 54.3525 22.6876C55.6347 23.967 57.7111 23.9656 58.9914 22.6843C60.2713 21.4034 60.2713 19.3271 58.9914 18.0458C57.7111 16.765 55.6347 16.763 54.3525 18.0424C53.9571 18.4474 53.6673 18.9439 53.5091 19.4877H50.1693C49.94 19.4936 49.7222 19.5903 49.5645 19.7573C49.4067 19.9237 49.322 20.1463 49.3288 20.3757V23.9472H46.3559V7.50591C46.3559 5.11845 44.4315 3.13647 42.044 3.13647H18.9562C16.5682 3.13647 14.6443 5.11845 14.6443 7.50591V22.9562H11.6713V20.3757C11.6781 20.1463 11.5934 19.9237 11.4357 19.7573C11.2779 19.5903 11.0602 19.4936 10.8308 19.4877H7.4911C7.33287 18.9439 7.04303 18.4479 6.64721 18.0429C5.70655 17.0959 4.28781 16.8104 3.05392 17.319C1.82002 17.828 1.01485 19.0305 1.01485 20.3655C1.01485 21.7 1.82002 22.9025 3.05392 23.4115C4.28781 23.9201 5.70655 23.6346 6.64721 22.6881C7.04399 22.2754 7.33335 21.7721 7.4911 21.222H9.93711V23.8141C9.94872 24.2999 10.345 24.688 10.8308 24.6904H14.6443V29.1499H6.95012C6.51608 27.5637 4.97541 26.5437 3.3457 26.7629C1.71647 26.9821 0.5 28.3728 0.5 30.017C0.5 31.6612 1.71647 33.0519 3.3457 33.2711C4.97541 33.4903 6.51608 32.4698 6.95012 30.8841H14.6443V34.3525H10.8308C10.3402 34.3666 9.94679 34.7634 9.93711 35.254V38.812H7.4911C7.33335 38.2618 7.04399 37.7586 6.64721 37.3458C5.36686 36.0747 3.29876 36.08 2.02471 37.3574C0.750166 38.6349 0.750166 40.7025 2.02471 41.9799C3.29876 43.2574 5.36686 43.2622 6.64721 41.9911C7.04303 41.5861 7.33287 41.0901 7.4911 40.5462H10.8308C11.0602 40.5404 11.2779 40.4431 11.4357 40.2767C11.5934 40.1097 11.6781 39.8872 11.6713 39.6578V36.0868H14.6443V52.5276C14.6443 54.9155 16.5682 56.8975 18.9562 56.8975H42.044C44.4315 56.8975 46.3559 54.9155 46.3559 52.5276V37.0778H49.3288V39.6578C49.322 39.8872 49.4067 40.1097 49.5645 40.2767C49.7222 40.4431 49.94 40.5404 50.1693 40.5462H53.5091C53.6673 41.0896 53.9571 41.5861 54.3525 41.9911C55.2936 42.9375 56.7123 43.2235 57.9462 42.7145C59.1796 42.2059 59.9848 41.003 59.9848 39.6684C59.9848 38.3339 59.1796 37.131 57.9462 36.6224C56.7123 36.1134 55.2936 36.3994 54.3525 37.3458C53.9562 37.7586 53.6663 38.2618 53.5086 38.812H51.063V36.2198C51.0509 35.734 50.6551 35.3455 50.1693 35.3435H46.3559V30.8841H54.05ZM56.122 28.9205C56.6451 28.3979 57.4648 28.3171 58.0798 28.7279C58.6948 29.1387 58.9338 29.927 58.6508 30.6102C58.3677 31.2935 57.6414 31.6815 56.9161 31.5373C56.1907 31.3931 55.6681 30.7563 55.6681 30.017C55.6676 29.6057 55.8312 29.2108 56.122 28.9205ZM55.5791 19.2797C55.9696 18.8843 56.5425 18.7281 57.0801 18.8713C57.6172 19.014 58.0372 19.4336 58.1799 19.9711C58.3227 20.5082 58.1669 21.0812 57.7716 21.4721C57.1648 22.0717 56.1883 22.0688 55.5854 21.4658C54.9825 20.8629 54.9796 19.886 55.5791 19.2797ZM5.42106 21.4721C4.81573 22.077 3.8349 22.077 3.22957 21.4717C2.62472 20.8663 2.62472 19.8855 3.22957 19.2802C3.8349 18.6748 4.81573 18.6748 5.42106 19.2797C5.71429 19.569 5.87929 19.9639 5.87929 20.3757C5.87929 20.7879 5.71429 21.1828 5.42106 21.4721ZM4.87766 31.113C4.35459 31.636 3.53538 31.7168 2.92037 31.306C2.30536 30.8947 2.06632 30.107 2.34939 29.4237C2.63246 28.7405 3.35876 28.3519 4.0841 28.4966C4.80943 28.6408 5.33203 29.2771 5.33203 30.017C5.33154 30.4283 5.16847 30.8222 4.87766 31.113ZM5.42106 40.7543C5.03008 41.1496 4.45765 41.3054 3.92006 41.1627C3.38296 41.0199 2.96295 40.5999 2.8202 40.0628C2.67746 39.5252 2.83327 38.9528 3.2286 38.5618C3.8349 37.9623 4.81185 37.9652 5.41477 38.5681C6.01768 39.171 6.02059 40.148 5.42106 40.7543ZM55.5791 38.5618C56.1844 37.956 57.1662 37.956 57.7716 38.5618C58.3769 39.1671 58.3769 40.1489 57.7716 40.7543C57.1662 41.3596 56.1844 41.3596 55.5791 40.7543C55.2854 40.4649 55.1204 40.0701 55.1204 39.6578C55.1204 39.246 55.2854 38.8512 55.5791 38.5613V38.5618ZM16.3785 13.5418H44.6216V44.7579H16.3785V13.5418ZM18.9562 4.8707H42.044C43.4753 4.8707 44.6216 6.07459 44.6216 7.50591V11.8076H16.3785V7.50591C16.3785 6.07459 17.5243 4.8707 18.9562 4.8707ZM42.044 55.1632H18.9562C17.5243 55.1632 16.3785 53.9589 16.3785 52.5276V46.4921H44.6216V52.5276C44.6216 53.9589 43.4753 55.1632 42.044 55.1632Z" fill="white"/>
</g>
<defs>
<clipPath id="clip0_196_553">
<rect width="60" height="60" fill="white" transform="translate(0.5 -0.00585938)"/>
</clipPath>
</defs>
</svg>
