<svg width="23" height="25" viewBox="0 0 23 25" fill="none" xmlns="http://www.w3.org/2000/svg">
<path d="M22.1194 5.79448L11.5688 0.519114C11.3706 0.420061 11.1375 0.420061 10.9395 0.519114L0.388907 5.79448C0.150518 5.91361 0 6.15725 0 6.42371V10.7065C0 17.0275 4.33721 22.9941 11.106 24.4448C18.2026 23.29 22.528 16.8063 22.5084 10.7066V6.42371C22.5083 6.15725 22.3578 5.91361 22.1194 5.79448ZM11.2541 8.73468C10.811 8.73468 10.4505 8.37407 10.4505 7.93096C10.4909 6.86626 12.0176 6.8666 12.0579 7.93096C12.0577 8.37419 11.6972 8.73468 11.2541 8.73468ZM21.1011 10.7065C21.1011 17.4549 16.2582 20.7653 14.9722 21.5387V14.2513L16.2991 12.9243C17.7299 13.664 19.5155 12.5635 19.4938 10.9453C19.4938 9.72635 18.502 8.73456 17.283 8.73456C15.6651 8.71311 14.5642 10.4985 15.3041 11.9294L13.7711 13.4624C13.6392 13.5943 13.565 13.7733 13.565 13.9598V22.2698C13.0442 22.5003 12.5072 22.6959 11.9577 22.8546V10.0264C14.2974 9.20062 13.7656 5.76949 11.254 5.72019C8.7421 5.76971 8.21111 9.20107 10.5505 10.0264V22.8547C10.0009 22.6961 9.46399 22.5004 8.94317 22.2699V13.9599C8.94317 13.7734 8.86899 13.5943 8.73707 13.4625L7.20404 11.9295C7.94374 10.4987 6.8432 8.71311 5.22504 8.73479C4.00605 8.73479 3.01426 9.72646 3.01426 10.9456C2.99281 12.5635 4.77816 13.6645 6.20906 12.9246L7.536 14.2515V21.539C6.25003 20.7654 1.40717 17.455 1.40717 10.7066V6.85861L11.2541 1.93507L21.1011 6.85861V10.7065ZM16.4794 10.9455C16.4794 10.5023 16.8399 10.1418 17.283 10.1418C18.3477 10.1822 18.3474 11.7089 17.283 11.7492C16.8399 11.7492 16.4794 11.3886 16.4794 10.9455ZM6.02887 10.9455C6.02887 11.3886 5.66838 11.7492 5.22527 11.7492C4.16056 11.7088 4.16079 10.1821 5.22527 10.1418C5.66838 10.1418 6.02887 10.5023 6.02887 10.9455Z" fill="#4D51AB"/>
</svg>
