<svg width="81" height="81" viewBox="0 0 81 81" fill="none" xmlns="http://www.w3.org/2000/svg">
<g clip-path="url(#clip0_196_489)">
<path d="M14.1692 40.1859C13.1124 40.1865 12.1172 40.681 11.4772 41.5218C10.5943 40.3641 9.07196 39.8985 7.69271 40.3641C6.31347 40.8303 5.38477 42.1236 5.38477 43.5794C5.38477 45.0352 6.31347 46.3291 7.69271 46.7947C9.07196 47.2603 10.5943 46.7947 11.4772 45.6376C12.4435 46.9014 14.1591 47.3237 15.6017 46.6529C17.045 45.9815 17.8269 44.3977 17.483 42.844C17.1385 41.2903 15.7605 40.1846 14.1692 40.1859ZM8.78457 44.724C8.15267 44.724 7.64063 44.2107 7.64063 43.5788C7.64126 42.9469 8.15393 42.4342 8.78582 42.4348C9.41834 42.4348 9.93038 42.9475 9.93038 43.5794C9.92975 44.2119 9.41709 44.724 8.78457 44.724ZM14.1692 44.724C13.5373 44.724 13.0246 44.2113 13.0246 43.5794C13.0246 42.9469 13.5373 42.4348 14.1692 42.4348C14.8017 42.4348 15.3143 42.9469 15.3143 43.5794C15.3131 44.2113 14.801 44.7233 14.1692 44.724Z" fill="url(#paint0_linear_196_489)"/>
<path d="M80.7735 26.3765C80.7735 14.4596 71.0768 4.75659 59.1593 4.75659C50.6704 4.75659 43.3086 9.73895 39.7758 16.8071H12.6508C11.1077 16.8153 9.63187 17.4371 8.54817 18.5359C7.46511 19.634 6.86396 21.1193 6.87777 22.6617V24.6785H4.97707C3.86827 24.6684 2.80089 25.1008 2.01212 25.8802C1.22273 26.6595 0.777203 27.7212 0.773438 28.83V46.722C0.77783 47.8295 1.22398 48.89 2.01275 49.6675C2.80215 50.4449 3.8689 50.8754 4.97707 50.8628H6.87777V60.394C6.87777 63.6143 9.43107 66.2843 12.6508 66.2843H29.6887V74.7982H24.4164C23.7952 74.7982 23.2919 75.3015 23.2919 75.9227C23.2919 76.5439 23.7952 77.0472 24.4164 77.0472H58.8235C59.4448 77.0472 59.948 76.5439 59.948 75.9227C59.948 75.3015 59.4448 74.7982 58.8235 74.7982H53.4634V66.2843H70.5892C73.8089 66.2843 76.435 63.6143 76.435 60.394V39.3545C79.2587 35.6183 80.7823 31.0602 80.7735 26.3765ZM59.158 7.01308C69.8519 7.01308 78.5208 15.6826 78.5208 26.3765C78.5208 37.0704 69.8519 45.7399 59.158 45.7399C48.4635 45.7399 39.7946 37.0704 39.7946 26.3765C39.8065 15.6877 48.4685 7.02564 59.158 7.01308ZM4.97707 26.9275H33.2836C34.3598 26.9275 35.3111 27.7532 35.3111 28.83V29.9796H3.0224V28.83C3.02554 28.3174 3.23387 27.8273 3.60158 27.4696C3.96867 27.1119 4.4644 26.9168 4.97707 26.9275ZM3.0224 32.2286H35.3111V35.7627H3.0224V32.2286ZM3.0224 46.722V38.0116H35.3111V46.722C35.3111 47.7981 34.3604 48.6139 33.2836 48.6139H4.97707C4.46565 48.6271 3.96993 48.4338 3.60284 48.078C3.23512 47.7222 3.02617 47.2334 3.0224 46.722ZM51.2145 74.7982H31.9376V66.2843H51.2145V74.7982ZM74.186 60.394C74.1848 62.3875 72.5821 64.0096 70.5892 64.0353H12.6508C10.671 64.0353 9.12673 62.3737 9.12673 60.394V55.6821H74.186V60.394ZM9.12673 53.4331V50.8628H33.2836C35.6004 50.8628 37.56 49.0387 37.56 46.722V28.83C37.56 26.5133 35.6004 24.6785 33.2836 24.6785H9.12673V22.6617C9.1123 21.7154 9.47625 20.8024 10.1376 20.1253C10.7996 19.4483 11.7045 19.0636 12.6508 19.0561H38.8176C37.9711 21.4011 37.5406 23.8759 37.5456 26.369C37.5456 38.2858 47.2443 47.9851 59.1611 47.9851C64.7723 47.9971 70.165 45.8127 74.186 41.899V53.4331H9.12673Z" fill="url(#paint1_linear_196_489)"/>
<path d="M48.4833 24.9501V28.3637C48.3252 28.4616 48.1947 28.5996 48.1056 28.7628C47.8809 29.1305 47.886 29.5936 48.1181 29.9563L48.4833 30.5336V36.1479C48.4921 37.2366 49.0594 38.245 49.985 38.8172L57.6235 43.6327C58.6589 44.2796 59.9723 44.2796 61.007 43.6327L68.665 38.8185C69.5912 38.2456 70.1597 37.2372 70.1698 36.1479V30.5336L70.518 29.9563C70.7596 29.5999 70.7766 29.1362 70.562 28.7628C70.4672 28.5984 70.3323 28.461 70.1698 28.3631V24.9827C72.4187 23.8821 73.0073 22.5919 73.0073 21.6338C73.0073 19.5668 70.5864 17.9371 66.2197 17.0423L66.0044 15.8432C65.6524 13.5409 64.1307 11.5856 61.9847 10.6801C60.2716 9.95784 58.3389 9.95973 56.6277 10.6864C54.5036 11.6088 52.9951 13.549 52.6261 15.835L52.4203 17.0222C52.3927 17.0285 52.3657 17.0335 52.3375 17.0404C48.041 17.9409 45.6445 19.5611 45.6445 21.6036C45.6439 22.9873 46.7163 24.1061 48.4833 24.9501ZM59.3416 26.8577C62.4904 26.8577 65.5112 26.4856 67.9208 25.806V28.3518L61.1124 28.9259C59.9158 28.1547 58.7511 28.1547 57.5545 28.9259L50.7323 28.3518V25.7866C53.3026 26.4956 56.3014 26.8577 59.3416 26.8577ZM67.3322 30.6541L65.4629 33.4891L63.1487 31.0074L67.3322 30.6541ZM55.5007 31.0074L53.1852 33.4891L51.3165 30.6541L55.5007 31.0074ZM67.9208 36.1479C67.9089 36.4647 67.737 36.754 67.4652 36.9165L59.8254 41.7307C59.5261 41.9171 59.1471 41.9171 58.8478 41.7307L51.1898 36.9159C50.9174 36.754 50.7449 36.4654 50.7323 36.1479V33.9459L52.0639 35.9201C52.2596 36.2087 52.5759 36.3932 52.9235 36.4214C52.9555 36.424 52.9938 36.4252 53.0252 36.4252C53.3383 36.4252 53.637 36.2959 53.8516 36.0682L58.7204 30.8511C59.1935 30.511 59.4527 30.511 59.9252 30.8511L64.7927 36.0682C65.0054 36.2959 65.3029 36.4252 65.6147 36.4252C65.6467 36.4252 65.6775 36.424 65.7095 36.4214C66.0622 36.3932 66.3834 36.2093 66.5861 35.9201L67.9208 33.9459V36.1479ZM54.8431 16.2021C55.0589 14.821 55.9017 13.6174 57.1259 12.9422C58.3502 12.267 59.8179 12.1961 61.1018 12.7502C62.5331 13.3558 63.5459 14.6628 63.7762 16.1996C63.7774 16.2059 63.7781 16.2115 63.7793 16.2178L64.3045 19.2549L63.3953 19.5379C60.7366 20.4064 57.8701 20.4051 55.212 19.5341L54.3147 19.2549L54.8431 16.2021ZM52.003 19.4237L51.9308 19.8435C51.8342 20.3995 52.1655 20.941 52.7045 21.1085L54.5287 21.6771C56.0692 22.1809 57.6794 22.4382 59.3002 22.4388C60.921 22.4376 62.5325 22.1822 64.0749 21.6814L65.9134 21.1085C66.4525 20.941 66.7832 20.3995 66.6871 19.8435L66.6175 19.4419C69.6973 20.2018 70.7251 21.2227 70.7251 21.6344C70.7251 22.5242 66.8516 24.6094 59.3385 24.6094C51.806 24.6094 47.9224 22.5028 47.9224 21.6036C47.923 21.2146 48.9715 20.1817 52.003 19.4237Z" fill="url(#paint2_linear_196_489)"/>
</g>
<defs>
<linearGradient id="paint0_linear_196_489" x1="5.5097" y1="43.5276" x2="17.4384" y2="43.5843" gradientUnits="userSpaceOnUse">
<stop stop-color="#4D51AB"/>
<stop offset="1" stop-color="#55CEE3"/>
</linearGradient>
<linearGradient id="paint1_linear_196_489" x1="1.59411" y1="40.3499" x2="79.9528" y2="40.58" gradientUnits="userSpaceOnUse">
<stop stop-color="#4D51AB"/>
<stop offset="1" stop-color="#55CEE3"/>
</linearGradient>
<linearGradient id="paint2_linear_196_489" x1="45.9252" y1="26.8694" x2="72.7267" y2="26.9267" gradientUnits="userSpaceOnUse">
<stop stop-color="#4D51AB"/>
<stop offset="1" stop-color="#55CEE3"/>
</linearGradient>
<clipPath id="clip0_196_489">
<rect width="80" height="80" fill="white" transform="translate(0.773438 0.899902)"/>
</clipPath>
</defs>
</svg>
