<svg width="60" height="60" viewBox="0 0 60 60" fill="none" xmlns="http://www.w3.org/2000/svg">
<g clip-path="url(#clip0_196_524)">
<path d="M9.1516 14.2263C5.99569 14.2339 3.43871 16.7885 3.42781 19.9444V49.7964H1.73011C1.26064 49.7964 0.878418 50.1179 0.878418 50.5874V54.3213C0.881737 55.8308 1.48542 57.2771 2.5562 58.3413C3.62698 59.4054 5.07666 60.0001 6.58609 59.9939H53.4425C54.9524 60.0001 56.4021 59.4054 57.4728 58.3413C58.5432 57.2771 59.1468 55.8308 59.1502 54.3213V50.5874C59.1502 50.1179 58.7679 49.7964 58.2985 49.7964H56.6008V19.9444C56.5903 16.7885 54.0329 14.2339 50.8774 14.2263H36.6913V10.9485H41.891C42.3605 10.959 42.7498 10.5872 42.7612 10.1172V6.84657C43.2933 6.68818 43.7789 6.40365 44.1772 6.01717C45.4377 4.75954 45.4391 2.71804 44.181 1.45852C42.9225 0.199476 40.881 0.199476 39.6224 1.45852C38.3638 2.71804 38.3652 4.75954 39.6257 6.01717C40.0127 6.42831 40.512 6.71664 41.0616 6.84657V9.24895H35.8505C35.3758 9.25701 34.9945 9.64255 34.9917 10.1172V14.2263H30.8641V6.31403C32.4181 5.88865 33.4173 4.37922 33.2029 2.78253C32.9881 1.18585 31.6257 -0.00585938 30.0143 -0.00585938C28.4034 -0.00585938 27.0405 1.18585 26.8261 2.78253C26.6113 4.37922 27.611 5.88865 29.1645 6.31403V14.2263H24.7941V10.1172C24.7799 9.63781 24.3901 9.25512 23.9106 9.24895H18.9669V6.84657C19.517 6.71664 20.0164 6.42831 20.4038 6.01717C21.6605 4.76097 21.6624 2.72421 20.409 1.46469H20.4114C19.4914 0.544232 18.1067 0.269186 16.9041 0.767114C15.7015 1.26552 14.9176 2.4392 14.9181 3.74093C14.9124 4.59404 15.2481 5.41396 15.8509 6.01717C16.2497 6.40365 16.7357 6.68818 17.2673 6.84657V10.1172C17.2787 10.5872 17.6681 10.959 18.138 10.9485H23.0945V14.2263H9.1516ZM40.8165 2.66683C41.4097 2.07311 42.3719 2.07311 42.9656 2.66635C43.5589 3.26007 43.5589 4.22226 42.9656 4.8155C42.3719 5.40922 41.4097 5.40922 40.8165 4.8155C40.2242 4.22178 40.2242 3.26054 40.8165 2.66683ZM28.4949 3.20886C28.4949 2.52124 28.9568 1.91899 29.6212 1.74115C30.2855 1.56285 30.9864 1.85307 31.3302 2.44869C31.674 3.0443 31.5749 3.79688 31.0889 4.28296C30.654 4.71734 30.0005 4.84727 29.4329 4.61206C28.8653 4.37685 28.4949 3.82297 28.4949 3.20886ZM16.6186 3.74093C16.6186 3.01585 17.1303 2.39178 17.8416 2.25046C18.5525 2.10915 19.2647 2.48947 19.5422 3.15954C19.8196 3.82913 19.5853 4.60163 18.9826 5.00471C18.3794 5.40732 17.5761 5.32813 17.0634 4.8155C16.7775 4.53097 16.6172 4.14448 16.6186 3.74093ZM57.4506 54.3213C57.4477 55.3803 57.0233 56.3946 56.2717 57.1401C55.5196 57.8856 54.5014 58.301 53.4425 58.2943H6.58609C5.52716 58.301 4.50949 57.8856 3.75739 57.1401C3.00528 56.3946 2.58086 55.3803 2.57801 54.3213V51.496H22.5179L23.2515 52.249C24.3374 53.408 25.8587 54.0591 27.4469 54.0453H32.5822C34.1703 54.0591 35.6916 53.408 36.7776 52.249L37.5107 51.496H57.4506V54.3213ZM54.9012 19.9444V49.7964H37.1384C36.9047 49.7855 36.6775 49.8746 36.5134 50.0411L35.5275 51.0824C34.7655 51.8967 33.6975 52.3548 32.5822 52.3458H27.4469C26.3296 52.3496 25.2617 51.8862 24.501 51.0677L23.5156 50.0344C23.3506 49.8699 23.1234 49.7831 22.8906 49.7964H5.1274V19.9444C5.13688 17.727 6.93416 15.9326 9.1516 15.9259H50.8774C53.0949 15.9326 54.8917 17.727 54.9012 19.9444Z" fill="white"/>
<path d="M51.8661 20.175C51.8661 19.706 51.4858 19.3252 51.0163 19.3252H9.13349C8.66449 19.3252 8.28369 19.706 8.28369 20.175V46.2759C8.28369 46.7453 8.66449 47.1257 9.13349 47.1257H51.0163C51.4858 47.1257 51.8661 46.7453 51.8661 46.2759V20.175ZM9.98328 21.0248H50.0451V45.5475H9.98328V21.0248Z" fill="white"/>
<path d="M38.9144 26.187L30.4392 22.0177C30.3083 21.9248 30.1523 21.875 29.992 21.8745H29.991C29.7895 21.8755 29.5955 21.9494 29.4447 22.0827L21.1156 26.1752C20.8306 26.3208 20.6556 26.6181 20.6665 26.9382V34.952C20.6665 37.1372 22.0545 39.8137 23.8613 41.0452L29.5491 44.9338C29.6875 45.03 29.8525 45.0817 30.0214 45.0817C30.1911 45.0817 30.3566 45.03 30.4965 44.9338L36.1691 41.0452C37.9759 39.8137 39.362 37.1367 39.362 34.952V26.9501C39.3734 26.6304 39.1984 26.3336 38.9144 26.187ZM22.3661 34.952V27.4684L29.1706 24.1223L29.1763 42.6224L24.8254 39.641C23.4814 38.7249 22.3661 36.5771 22.3661 34.952ZM37.6624 34.952C37.6624 36.5771 36.5542 38.7244 35.2102 39.641L30.8494 42.6248L30.8095 24.1033L37.6624 27.4793V34.952Z" fill="white"/>
</g>
<defs>
<clipPath id="clip0_196_524">
<rect width="60" height="60" fill="white" transform="translate(0 -0.00585938)"/>
</clipPath>
</defs>
</svg>
