<svg width="28" height="29" viewBox="0 0 28 29" fill="none" xmlns="http://www.w3.org/2000/svg">
<path d="M25.8666 11.9592C26.055 11.52 26.0775 11.0273 25.9298 10.5728C25.7822 10.1183 25.4745 9.73284 25.0639 9.4882L22.8169 8.14886C22.7912 8.13351 22.7688 8.11308 22.7511 8.08881C22.7335 8.06455 22.721 8.03695 22.7143 8.0077L22.1309 5.45503C22.0264 4.98871 21.7555 4.57647 21.369 4.29539C20.9825 4.01432 20.5068 3.88366 20.0309 3.92786L17.4269 4.1612C17.367 4.16319 17.3081 4.14467 17.2601 4.1087L15.2896 2.38203C14.9304 2.06896 14.47 1.89648 13.9934 1.89648C13.5169 1.89648 13.0565 2.06896 12.6973 2.38203L10.7338 4.1192C10.7124 4.14023 10.6864 4.15594 10.6578 4.16506C10.6292 4.17418 10.5989 4.17645 10.5693 4.1717L7.96178 3.93836C7.48626 3.8945 7.01104 4.02534 6.62498 4.3064C6.23892 4.58747 5.96844 4.99953 5.86412 5.46553L5.28078 8.0182C5.27413 8.0473 5.26172 8.07479 5.24429 8.09903C5.22686 8.12327 5.20476 8.14379 5.17928 8.15936L2.93695 9.4882C2.52641 9.73284 2.21871 10.1183 2.07106 10.5728C1.92342 11.0273 1.94588 11.52 2.13428 11.9592L3.16912 14.3637C3.18064 14.3908 3.18657 14.42 3.18657 14.4494C3.18657 14.4789 3.18064 14.5081 3.16912 14.5352L2.13428 16.9385C1.94588 17.3777 1.92342 17.8704 2.07106 18.3249C2.21871 18.7795 2.52641 19.1649 2.93695 19.4095L5.18395 20.7489C5.20972 20.7642 5.23211 20.7846 5.24976 20.8089C5.26741 20.8332 5.27995 20.8608 5.28662 20.89L5.86995 23.4427C5.97386 23.9094 6.24457 24.3221 6.63124 24.6033C7.01792 24.8845 7.49396 25.0148 7.96995 24.9699L10.5739 24.7365C10.6342 24.7327 10.6936 24.7514 10.7408 24.789L12.7113 26.5157C13.0706 26.8285 13.531 27.0009 14.0074 27.0009C14.4839 27.0009 14.9443 26.8285 15.3036 26.5157L17.2729 24.789C17.2954 24.7696 17.3215 24.7549 17.3498 24.7459C17.3781 24.7369 17.4079 24.7337 17.4374 24.7365L20.0449 24.9699C20.5209 25.0146 20.9968 24.8841 21.3834 24.603C21.77 24.3218 22.0408 23.9093 22.145 23.4427L22.7283 20.89C22.7349 20.8609 22.7473 20.8334 22.7648 20.8092C22.7822 20.785 22.8043 20.7644 22.8298 20.7489L25.0779 19.4142C25.4885 19.1695 25.7962 18.7841 25.9438 18.3296C26.0915 17.8751 26.069 17.3824 25.8806 16.9432L24.8458 14.5387C24.8342 14.5118 24.8283 14.4828 24.8283 14.4535C24.8283 14.4242 24.8342 14.3953 24.8458 14.3684L25.8666 11.9592ZM23.2253 15.2259L24.2601 17.6292C24.2807 17.6779 24.283 17.7324 24.2668 17.7828C24.2505 17.8331 24.2167 17.8759 24.1714 17.9034L21.9209 19.238C21.6913 19.3752 21.4919 19.5577 21.3349 19.7743C21.1778 19.9909 21.0664 20.2371 21.0075 20.498L20.4241 23.0507C20.4131 23.1028 20.3832 23.149 20.3401 23.1803C20.2969 23.2115 20.2437 23.2256 20.1908 23.2199L17.5833 22.9795C17.3175 22.9542 17.0493 22.9838 16.7954 23.0665C16.5415 23.1491 16.3073 23.2832 16.1074 23.4602L14.1369 25.1857C14.0975 25.2211 14.0464 25.2407 13.9934 25.2407C13.9405 25.2407 13.8894 25.2211 13.8499 25.1857L11.8794 23.4602C11.518 23.146 11.0552 22.9732 10.5763 22.9737C10.5179 22.9737 10.4596 22.9737 10.4036 22.9737L7.79612 23.214C7.74321 23.2195 7.69014 23.2053 7.64708 23.1741C7.60401 23.1429 7.574 23.0969 7.56278 23.0449L6.97945 20.4922C6.92044 20.2311 6.80892 19.9848 6.65167 19.7681C6.49443 19.5515 6.29475 19.3692 6.06478 19.2322L3.82945 17.9057C3.78424 17.8782 3.75041 17.8354 3.73414 17.7851C3.71786 17.7348 3.72022 17.6803 3.74078 17.6315L4.77562 15.2294C4.88104 14.9829 4.9354 14.7175 4.9354 14.4494C4.9354 14.1813 4.88104 13.916 4.77562 13.6695L3.74078 11.2662C3.72022 11.2175 3.71786 11.163 3.73414 11.1126C3.75041 11.0623 3.78424 11.0195 3.82945 10.992L6.07995 9.65736C6.30961 9.52015 6.509 9.33772 6.66603 9.12113C6.82306 8.90454 6.93445 8.6583 6.99345 8.39736L7.57678 5.8447C7.58701 5.79219 7.61679 5.74552 7.6601 5.71412C7.70341 5.68272 7.75703 5.66893 7.81011 5.67553L10.4176 5.91586C10.6833 5.93963 10.9511 5.90928 11.2048 5.82667C11.4584 5.74406 11.6927 5.61088 11.8934 5.4352L13.8569 3.71553C13.8964 3.68011 13.9475 3.66052 14.0004 3.66052C14.0534 3.66052 14.1045 3.68011 14.1439 3.71553L16.1156 5.44103C16.5242 5.79013 17.0545 5.96298 17.5903 5.9217L20.1978 5.68136C20.2509 5.67447 20.3047 5.68815 20.348 5.7196C20.3914 5.75105 20.4211 5.79789 20.4311 5.85053L21.0144 8.4032C21.0735 8.66428 21.185 8.91063 21.3422 9.12725C21.4995 9.34386 21.6992 9.52621 21.9291 9.6632L24.1784 10.9979C24.2237 11.0253 24.2575 11.0681 24.2738 11.1185C24.29 11.1688 24.2877 11.2233 24.2671 11.272L23.2323 13.6754C23.1263 13.9203 23.0711 14.1842 23.0699 14.4511C23.0687 14.7179 23.1215 14.9823 23.2253 15.2282V15.2259Z" fill="url(#paint0_linear_190_31)"/>
<path d="M17.9845 10.8754L12.717 16.263L9.89948 14.2424C9.71058 14.1073 9.47576 14.0528 9.24669 14.0909C9.01761 14.1289 8.81304 14.2565 8.67798 14.4454C8.54292 14.6343 8.48843 14.8691 8.5265 15.0982C8.56457 15.3272 8.69208 15.5318 8.88098 15.6669L12.3133 18.1169C12.4828 18.239 12.6906 18.2962 12.8987 18.278C13.1069 18.2598 13.3016 18.1674 13.4473 18.0177L19.2351 12.0934C19.32 12.0122 19.3876 11.9149 19.434 11.807C19.4804 11.6992 19.5046 11.5832 19.5052 11.4658C19.5059 11.3485 19.4829 11.2322 19.4376 11.1239C19.3924 11.0156 19.3259 10.9175 19.2419 10.8354C19.158 10.7534 19.0584 10.6891 18.9491 10.6463C18.8398 10.6035 18.723 10.5832 18.6057 10.5865C18.4884 10.5898 18.3729 10.6166 18.2662 10.6654C18.1595 10.7143 18.0637 10.7841 17.9845 10.8707V10.8754Z" fill="url(#paint1_linear_190_31)"/>
<defs>
<linearGradient id="paint0_linear_190_31" x1="2.22148" y1="14.257" x2="25.7934" y2="14.3169" gradientUnits="userSpaceOnUse">
<stop stop-color="#4D51AB"/>
<stop offset="1" stop-color="#55CEE3"/>
</linearGradient>
<linearGradient id="paint1_linear_190_31" x1="8.62739" y1="14.375" x2="19.3924" y2="14.4157" gradientUnits="userSpaceOnUse">
<stop stop-color="#4D51AB"/>
<stop offset="1" stop-color="#55CEE3"/>
</linearGradient>
</defs>
</svg>
