<svg width="51" height="51" viewBox="0 0 51 51" fill="none" xmlns="http://www.w3.org/2000/svg">
<g clip-path="url(#clip0_125_295)">
<path d="M40.3489 21.1166V10.6472C40.3489 8.34922 38.4803 6.48047 36.1822 6.48047H4.93223C2.63428 6.48047 0.765625 8.34912 0.765625 10.6472V31.4805C0.765625 33.7784 2.63428 35.6472 4.93232 35.6472H28.2932C29.658 40.4492 34.0735 43.9805 39.3073 43.9805C41.3215 43.9805 43.3021 43.4505 45.0375 42.4465C45.535 42.1586 45.7059 41.5218 45.4169 41.0233C45.129 40.5249 44.4912 40.3529 43.9938 40.6439C42.5757 41.4639 40.9552 41.8972 39.3072 41.8972C34.1375 41.8972 29.9322 37.6918 29.9322 32.5222C29.9322 27.3525 34.1376 23.1472 39.3072 23.1472C44.4769 23.1472 48.6822 27.3525 48.6822 32.5222V33.5639C48.6822 34.7123 47.7474 35.6472 46.5989 35.6472C45.4505 35.6472 44.5156 34.7123 44.5156 33.5639V29.3972C44.5156 28.8214 44.0497 28.3555 43.4739 28.3555C43.1938 28.3555 42.942 28.4688 42.755 28.6484C41.8343 27.828 40.6345 27.3138 39.3072 27.3138C36.4355 27.3138 34.0989 29.6504 34.0989 32.5221C34.0989 35.3937 36.4355 37.7305 39.3073 37.7305C40.8597 37.7305 42.2399 37.0341 43.195 35.9529C43.9496 37.0249 45.1911 37.7305 46.599 37.7305C48.897 37.7305 50.7656 35.8618 50.7656 33.5638V32.5221C50.7656 26.5556 46.1801 21.6453 40.3489 21.1166ZM4.93232 8.56377H36.1823C36.2257 8.56377 36.262 8.58594 36.3048 8.58857L21.4139 20.8115C20.8839 21.1452 20.1158 21.076 19.771 20.8645L4.81113 8.58838C4.85342 8.58584 4.88936 8.56377 4.93232 8.56377ZM38.2656 21.1166C32.4345 21.6453 27.8489 26.5556 27.8489 32.5222C27.8489 32.8737 27.8705 33.2202 27.9017 33.5639H4.93232C3.78389 33.5639 2.84902 32.629 2.84902 31.4806V10.6472C2.84902 10.3521 2.91416 10.0735 3.02529 9.81904L18.5412 22.543C19.1475 22.9387 19.8443 23.1473 20.5574 23.1473C21.2431 23.1473 21.9134 22.954 22.5034 22.5878C22.5624 22.5562 22.6184 22.5187 22.6713 22.4749L38.0893 9.81885C38.2005 10.0735 38.2657 10.3521 38.2657 10.6473V21.1166H38.2656ZM39.3073 35.6472C37.5841 35.6472 36.1823 34.2454 36.1823 32.5222C36.1823 30.7989 37.5841 29.3972 39.3073 29.3972C41.0306 29.3972 42.4323 30.7989 42.4323 32.5222C42.4323 34.2454 41.0306 35.6472 39.3073 35.6472Z" fill="white"/>
</g>
<defs>
<clipPath id="clip0_125_295">
<rect width="50" height="50" fill="white" transform="translate(0.765625 0.230469)"/>
</clipPath>
</defs>
</svg>
