<svg width="59" height="59" viewBox="0 0 59 59" fill="none" xmlns="http://www.w3.org/2000/svg">
<path d="M11.4721 42.9311C9.05547 40.2727 7.60547 37.3727 7.60547 32.5394C7.60547 24.0811 13.6471 16.5894 22.1055 12.7227L24.2805 15.8644C16.3055 20.2144 14.6138 25.7727 14.1305 29.3977C15.3388 28.6727 17.0305 28.4311 18.7221 28.6727C23.0721 29.1561 26.4555 32.5394 26.4555 37.1311C26.4555 39.3061 25.4888 41.4811 24.0388 43.1727C22.3471 44.8644 20.4138 45.5894 17.9971 45.5894C15.3388 45.5894 12.9221 44.3811 11.4721 42.9311ZM35.6388 42.9311C33.2221 40.2727 31.7721 37.3727 31.7721 32.5394C31.7721 24.0811 37.8138 16.5894 46.2721 12.7227L48.4471 15.8644C40.4721 20.2144 38.7805 25.7727 38.2971 29.3977C39.5055 28.6727 41.1971 28.4311 42.8888 28.6727C47.2388 29.1561 50.6221 32.5394 50.6221 37.1311C50.6221 39.3061 49.6555 41.4811 48.2055 43.1727C46.7555 44.8644 44.5805 45.5894 42.1638 45.5894C39.5055 45.5894 37.0888 44.3811 35.6388 42.9311Z" fill="white"/>
</svg>
