<svg width="31" height="31" viewBox="0 0 31 31" fill="none" xmlns="http://www.w3.org/2000/svg">
<path d="M23.5923 18.2801C23.0396 17.7045 22.3728 17.3968 21.6662 17.3968C20.9653 17.3968 20.2929 17.6988 19.7173 18.2744L17.9166 20.0694C17.7684 19.9896 17.6203 19.9156 17.4778 19.8415C17.2726 19.7389 17.0789 19.642 16.9136 19.5395C15.2269 18.4681 13.694 17.072 12.2237 15.2656C11.5114 14.3652 11.0327 13.6073 10.6851 12.838C11.1524 12.4106 11.5855 11.9661 12.0072 11.5387C12.1668 11.3792 12.3263 11.2139 12.4859 11.0543C13.6826 9.85764 13.6826 8.30764 12.4859 7.11095L10.9302 5.55525C10.7535 5.37859 10.5712 5.19624 10.4002 5.01389C10.0583 4.66058 9.69929 4.29587 9.32888 3.95396C8.77612 3.4069 8.11509 3.11627 7.41987 3.11627C6.72465 3.11627 6.05222 3.4069 5.48237 3.95396C5.47667 3.95966 5.47667 3.95966 5.47097 3.96535L3.53347 5.91995C2.80406 6.64937 2.38806 7.53834 2.29689 8.56977C2.16012 10.2337 2.6502 11.7837 3.0263 12.7981C3.94946 15.2883 5.32851 17.5963 7.38568 20.0694C9.88164 23.0498 12.8848 25.4032 16.3153 27.0615C17.6259 27.6827 19.3754 28.4178 21.33 28.5431C21.4497 28.5488 21.575 28.5545 21.689 28.5545C23.0054 28.5545 24.1109 28.0816 24.9771 27.1413C24.9828 27.1299 24.9942 27.1242 24.9999 27.1128C25.2962 26.7538 25.6381 26.429 25.9971 26.0814C26.2421 25.8477 26.4929 25.6027 26.7379 25.3463C27.3021 24.7593 27.5984 24.0755 27.5984 23.3746C27.5984 22.668 27.2964 21.9898 26.7208 21.42L23.5923 18.2801ZM25.6324 24.2806C25.6267 24.2806 25.6267 24.2863 25.6324 24.2806C25.4102 24.52 25.1822 24.7365 24.9372 24.9759C24.5668 25.3292 24.1907 25.6996 23.8374 26.1156C23.2618 26.731 22.5837 27.0216 21.6947 27.0216C21.6092 27.0216 21.5181 27.0216 21.4326 27.0159C19.7401 26.9077 18.1673 26.2466 16.9877 25.6825C13.7623 24.1211 10.9302 21.9043 8.57667 19.095C6.63347 16.7529 5.33421 14.5874 4.47373 12.2624C3.94376 10.8435 3.75001 9.73797 3.83549 8.69514C3.89248 8.02841 4.14891 7.47565 4.62189 7.00267L6.56509 5.05947C6.84432 4.79734 7.14064 4.65488 7.43127 4.65488C7.79028 4.65488 8.0809 4.87142 8.26325 5.05377C8.26895 5.05947 8.27465 5.06517 8.28035 5.07087C8.62796 5.39569 8.95848 5.7319 9.30609 6.09091C9.48274 6.27326 9.66509 6.45561 9.84745 6.64367L11.4031 8.19937C12.0072 8.80341 12.0072 9.36187 11.4031 9.96591C11.2379 10.1312 11.0783 10.2964 10.9131 10.456C10.4344 10.9461 9.97851 11.4019 9.48274 11.8464C9.47134 11.8578 9.45995 11.8635 9.45425 11.8749C8.96417 12.365 9.05535 12.8437 9.15792 13.1685C9.16362 13.1856 9.16932 13.2027 9.17502 13.2198C9.57962 14.1999 10.1495 15.1231 11.0156 16.2229L11.0213 16.2286C12.5941 18.1661 14.2524 19.6762 16.0816 20.833C16.3153 20.9812 16.5546 21.1009 16.7826 21.2148C16.9877 21.3174 17.1815 21.4143 17.3467 21.5168C17.3695 21.5282 17.3923 21.5453 17.4151 21.5567C17.6089 21.6536 17.7912 21.6992 17.9793 21.6992C18.4522 21.6992 18.7486 21.4029 18.8454 21.306L20.7943 19.3571C20.9881 19.1634 21.2958 18.9297 21.6548 18.9297C22.0081 18.9297 22.2987 19.152 22.4754 19.3457C22.4811 19.3514 22.4811 19.3514 22.4868 19.3571L25.6267 22.497C26.2136 23.0782 26.2136 23.6766 25.6324 24.2806Z" fill="#4D51AB"/>
<path d="M16.8451 7.97704C18.3382 8.22777 19.6944 8.93439 20.7771 10.0171C21.8599 11.0998 22.5608 12.4561 22.8172 13.9491C22.8799 14.3252 23.2047 14.5873 23.5751 14.5873C23.6207 14.5873 23.6606 14.5816 23.7062 14.5759C24.1279 14.5076 24.4071 14.1087 24.3387 13.687C24.031 11.8805 23.1762 10.2337 21.8713 8.92869C20.5663 7.62373 18.9194 6.76895 17.113 6.46123C16.6913 6.39284 16.2981 6.67207 16.224 7.08807C16.1499 7.50406 16.4235 7.90866 16.8451 7.97704Z" fill="#4D51AB"/>
<path d="M29.2228 13.4648C28.7156 10.4902 27.3138 7.7834 25.1597 5.62935C23.0057 3.4753 20.2989 2.07346 17.3242 1.56629C16.9082 1.49221 16.515 1.77714 16.441 2.19313C16.3726 2.61482 16.6518 3.00802 17.0735 3.0821C19.729 3.53229 22.1509 4.79167 24.077 6.71207C26.0031 8.63818 27.2568 11.0601 27.707 13.7156C27.7696 14.0917 28.0945 14.3538 28.4649 14.3538C28.5105 14.3538 28.5503 14.3481 28.5959 14.3424C29.0119 14.2797 29.2969 13.8808 29.2228 13.4648Z" fill="#4D51AB"/>
</svg>
