<svg width="80" height="81" viewBox="0 0 80 81" fill="none" xmlns="http://www.w3.org/2000/svg">
<g clip-path="url(#clip0_196_508)">
<path d="M36.0329 51.9329H27.4701C26.8333 51.9329 26.3174 52.4494 26.3174 53.0856C26.3174 53.7224 26.8333 54.2382 27.4701 54.2382H36.0329C36.6697 54.2382 37.1856 53.7224 37.1856 53.0856C37.1856 52.4494 36.6697 51.9329 36.0329 51.9329Z" fill="url(#paint0_linear_196_508)"/>
<path d="M36.0329 69.717H27.4701C26.8333 69.717 26.3174 70.2336 26.3174 70.8697C26.3174 71.5065 26.8333 72.0224 27.4701 72.0224H36.0329C36.6697 72.0224 37.1856 71.5065 37.1856 70.8697C37.1856 70.2336 36.6697 69.717 36.0329 69.717Z" fill="url(#paint1_linear_196_508)"/>
<path d="M52.8076 0.899906C46.8582 0.896689 41.1591 3.29341 37.0012 7.54781C35.2767 7.4198 33.5097 7.35162 31.7356 7.35162C24.7745 7.35162 18.2462 8.33835 13.2926 10.1311C7.97236 12.0563 5.0752 14.7656 5.0752 17.7593V70.4909C5.0752 73.4865 7.97171 76.1958 13.292 78.1211C18.2443 79.9125 24.7893 80.8992 31.753 80.8992C35.8312 80.914 39.9016 80.5474 43.9122 79.8057C53.0179 78.0593 58.4282 74.5775 58.4282 70.4909V44.4757C68.1637 41.9214 74.9499 33.1192 74.9447 23.0544C74.9447 10.838 65.0234 0.899906 52.8076 0.899906ZM31.735 9.657C32.8671 9.657 33.9947 9.68723 35.1101 9.74126C32.2129 13.5743 30.6473 18.2494 30.6524 23.0544C30.6524 23.991 30.7109 24.9269 30.8287 25.8558C16.9244 25.6814 7.31368 21.5113 7.31368 17.7593C7.31496 13.9268 17.3431 9.657 31.735 9.657ZM7.38057 22.1307C8.69793 23.36 10.7396 24.4644 13.2933 25.3881C18.1304 27.1384 24.4857 28.1206 31.2661 28.1656C31.7877 30.39 32.6535 32.5197 33.832 34.4778H27.4703C26.8335 34.4778 26.3176 34.9943 26.3176 35.6305C26.3176 36.2673 26.8335 36.7831 27.4703 36.7831H35.4323C37.3087 39.1541 39.6481 41.1186 42.3073 42.5575C38.8235 43.1287 35.2992 43.4105 31.7691 43.3995C17.3772 43.3995 7.38057 39.129 7.38057 35.2966V22.1307ZM43.469 77.5422C39.6076 78.2568 35.6877 78.6087 31.7607 78.5945C17.3682 78.5945 7.38057 74.3247 7.38057 70.4909V57.2061C8.69793 58.4353 10.7396 59.5397 13.292 60.4634C18.2443 62.2549 24.7893 63.2416 31.753 63.2416C38.7161 63.2416 45.2521 62.2549 50.2037 60.4634C52.7561 59.5397 54.8055 58.4353 56.1229 57.2061V70.4909C56.1229 73.255 51.0483 76.0878 43.469 77.5422ZM56.1229 52.4679V52.8333C56.1229 56.6657 46.1436 60.9362 31.7517 60.9362C17.3598 60.9362 7.38057 56.6657 7.38057 52.8333V39.6694C8.69793 40.8986 10.7396 42.003 13.292 42.9255C18.2443 44.7175 24.7893 45.7043 31.753 45.7043C36.87 45.7043 41.7979 45.1672 46.0574 44.1521C48.2341 44.8533 50.5074 45.2096 52.7941 45.2077C53.9088 45.2122 55.0216 45.1279 56.1229 44.9555V52.4679ZM52.8076 42.9029C41.8448 42.9036 32.9578 34.0172 32.9578 23.0544C32.9578 12.0923 41.8442 3.20528 52.8063 3.20528C63.7691 3.20528 72.6555 12.0917 72.6555 23.0544C72.6432 34.0114 63.7646 42.8907 52.8076 42.9029Z" fill="url(#paint2_linear_196_508)"/>
<path d="M58.8336 9.52759C56.3224 9.52566 54.0196 10.9234 52.8631 13.1523C51.7065 15.3811 51.8886 18.0692 53.3359 20.1211L40.4061 33.0509C39.9558 33.5012 39.9558 34.2313 40.4061 34.6816C40.8557 35.1318 41.5858 35.1318 42.036 34.6816L43.0408 33.6768L45.9514 36.5637C46.4004 37.0095 47.1254 37.0095 47.575 36.5637L51.7284 32.4411C51.9458 32.225 52.0687 31.9317 52.0693 31.6249C52.07 31.3187 51.9484 31.0247 51.7316 30.808L48.8209 27.8973L54.9658 21.7524C57.3381 23.4216 60.5138 23.3811 62.843 21.6521C65.1722 19.923 66.1306 16.8953 65.2198 14.1416C64.3083 11.3872 61.734 9.52759 58.8336 9.52823V9.52759ZM49.2834 31.6191L46.7632 34.1207L44.672 32.0462L47.191 29.5266L49.2834 31.6191ZM58.8343 20.6743C56.3932 20.6743 54.4139 18.6951 54.4133 16.2533C54.4133 13.8122 56.3925 11.833 58.8343 11.833C61.276 11.833 63.2553 13.8122 63.2553 16.2533C63.2521 18.6944 61.2741 20.6718 58.8336 20.6743H58.8343Z" fill="url(#paint3_linear_196_508)"/>
</g>
<defs>
<linearGradient id="paint0_linear_196_508" x1="26.4289" y1="53.0679" x2="37.0725" y2="53.2011" gradientUnits="userSpaceOnUse">
<stop stop-color="#4D51AB"/>
<stop offset="1" stop-color="#55CEE3"/>
</linearGradient>
<linearGradient id="paint1_linear_196_508" x1="26.4289" y1="70.8521" x2="37.0725" y2="70.9852" gradientUnits="userSpaceOnUse">
<stop stop-color="#4D51AB"/>
<stop offset="1" stop-color="#55CEE3"/>
</linearGradient>
<linearGradient id="paint2_linear_196_508" x1="5.79194" y1="40.2889" x2="74.2282" y2="40.4475" gradientUnits="userSpaceOnUse">
<stop stop-color="#4D51AB"/>
<stop offset="1" stop-color="#55CEE3"/>
</linearGradient>
<linearGradient id="paint3_linear_196_508" x1="40.3299" y1="23.0038" x2="65.2987" y2="23.0655" gradientUnits="userSpaceOnUse">
<stop stop-color="#4D51AB"/>
<stop offset="1" stop-color="#55CEE3"/>
</linearGradient>
<clipPath id="clip0_196_508">
<rect width="80" height="80" fill="white" transform="translate(0 0.899902)"/>
</clipPath>
</defs>
</svg>
