<svg width="31" height="31" viewBox="0 0 31 31" fill="none" xmlns="http://www.w3.org/2000/svg">
<g clip-path="url(#clip0_201_2981)">
<path d="M24.5039 12.5862V6.30458C24.5039 4.92582 23.3827 3.80457 22.0039 3.80457H3.25387C1.8751 3.80457 0.753906 4.92576 0.753906 6.30458V18.8046C0.753906 20.1833 1.8751 21.3046 3.25393 21.3046H17.2704C18.0893 24.1858 20.7387 26.3046 23.8789 26.3046C25.0874 26.3046 26.2758 25.9866 27.317 25.3842C27.6155 25.2114 27.718 24.8293 27.5447 24.5303C27.3719 24.2312 26.9893 24.128 26.6908 24.3027C25.8399 24.7946 24.8676 25.0546 23.8789 25.0546C20.777 25.0546 18.2539 22.5314 18.2539 19.4296C18.2539 16.3278 20.7771 13.8046 23.8789 13.8046C26.9806 13.8046 29.5039 16.3278 29.5039 19.4296V20.0546C29.5039 20.7437 28.9429 21.3046 28.2539 21.3046C27.5648 21.3046 27.0039 20.7437 27.0039 20.0546V17.5546C27.0039 17.2091 26.7244 16.9296 26.3789 16.9296C26.2108 16.9296 26.0597 16.9976 25.9475 17.1053C25.3951 16.6131 24.6752 16.3045 23.8789 16.3045C22.1559 16.3045 20.7539 17.7065 20.7539 19.4295C20.7539 21.1525 22.1559 22.5546 23.8789 22.5546C24.8103 22.5546 25.6385 22.1367 26.2115 21.488C26.6643 22.1312 27.4092 22.5546 28.2539 22.5546C29.6327 22.5546 30.7539 21.4334 30.7539 20.0545V19.4295C30.7539 15.8496 28.0026 12.9035 24.5039 12.5862ZM3.25393 5.05455H22.0039C22.0299 5.05455 22.0517 5.06785 22.0774 5.06943L13.1429 12.4032C12.8249 12.6034 12.364 12.5619 12.1571 12.435L3.18121 5.06931C3.20658 5.06779 3.22814 5.05455 3.25393 5.05455ZM23.2539 12.5862C19.7552 12.9035 17.0039 15.8496 17.0039 19.4296C17.0039 19.6405 17.0168 19.8484 17.0355 20.0546H3.25393C2.56486 20.0546 2.00395 19.4937 2.00395 18.8046V6.30458C2.00395 6.12757 2.04303 5.96041 2.10971 5.80771L11.4193 13.4421C11.783 13.6795 12.2011 13.8046 12.629 13.8046C13.0404 13.8046 13.4426 13.6887 13.7966 13.469C13.832 13.45 13.8655 13.4275 13.8973 13.4012L23.1481 5.80759C23.2148 5.96041 23.254 6.12757 23.254 6.30464V12.5862H23.2539ZM23.8789 21.3046C22.845 21.3046 22.0039 20.4635 22.0039 19.4296C22.0039 18.3956 22.845 17.5546 23.8789 17.5546C24.9129 17.5546 25.7539 18.3956 25.7539 19.4296C25.7539 20.4635 24.9129 21.3046 23.8789 21.3046Z" fill="#4D51AB"/>
</g>
<defs>
<clipPath id="clip0_201_2981">
<rect width="30" height="30" fill="white" transform="translate(0.753906 0.0545654)"/>
</clipPath>
</defs>
</svg>
