<svg width="50" height="51" viewBox="0 0 50 51" fill="none" xmlns="http://www.w3.org/2000/svg">
<path d="M38.0642 30.606C37.1429 29.6468 36.0317 29.1339 34.854 29.1339C33.6858 29.1339 32.5651 29.6373 31.6058 30.5965L28.6046 33.5883C28.3577 33.4553 28.1107 33.3318 27.8733 33.2084C27.5314 33.0374 27.2085 32.8759 26.933 32.705C24.1218 30.9194 21.5669 28.5925 19.1165 25.5818C17.9294 24.0812 17.1316 22.818 16.5522 21.5358C17.331 20.8235 18.0528 20.0827 18.7556 19.3704C19.0216 19.1045 19.2875 18.829 19.5534 18.5631C21.5479 16.5686 21.5479 13.9853 19.5534 11.9908L16.9606 9.39796C16.6662 9.10354 16.3623 8.79962 16.0773 8.4957C15.5075 7.90685 14.9091 7.299 14.2918 6.72915C13.3705 5.81738 12.2688 5.33301 11.1101 5.33301C9.9514 5.33301 8.83069 5.81738 7.88093 6.72915C7.87144 6.73865 7.87144 6.73865 7.86194 6.74814L4.63277 10.0058C3.41708 11.2215 2.72376 12.7031 2.5718 14.4222C2.34385 17.1955 3.16064 19.7788 3.78748 21.4694C5.32609 25.6198 7.6245 29.4663 11.0531 33.5883C15.213 38.5555 20.2183 42.478 25.9358 45.2418C28.1202 46.277 31.036 47.5022 34.2937 47.7111C34.4931 47.7206 34.702 47.7301 34.892 47.7301C37.0859 47.7301 38.9285 46.9418 40.3721 45.3747C40.3816 45.3557 40.4006 45.3462 40.4101 45.3272C40.904 44.7289 41.4738 44.1875 42.0722 43.6082C42.4805 43.2188 42.8984 42.8104 43.3068 42.383C44.2471 41.4047 44.741 40.265 44.741 39.0968C44.741 37.9191 44.2376 36.7889 43.2783 35.8392L38.0642 30.606ZM41.4643 40.6069C41.4548 40.6069 41.4548 40.6164 41.4643 40.6069C41.0939 41.0058 40.714 41.3668 40.3056 41.7657C39.6883 42.3545 39.0614 42.9718 38.4726 43.6652C37.5133 44.6909 36.3831 45.1753 34.9015 45.1753C34.759 45.1753 34.6071 45.1753 34.4646 45.1658C31.6438 44.9853 29.0225 43.8836 27.0565 42.9434C21.6809 40.341 16.9606 36.6465 13.0381 31.9642C9.79944 28.0607 7.634 24.4516 6.19986 20.5766C5.31659 18.2117 4.99367 16.3692 5.13614 14.6311C5.23111 13.5199 5.6585 12.5986 6.4468 11.8103L9.68547 8.57168C10.1508 8.13479 10.6447 7.89735 11.1291 7.89735C11.7274 7.89735 12.2118 8.25826 12.5157 8.56218C12.5252 8.57168 12.5347 8.58117 12.5442 8.59067C13.1236 9.13203 13.6744 9.69239 14.2538 10.2907C14.5482 10.5947 14.8521 10.8986 15.1561 11.212L17.7489 13.8048C18.7556 14.8116 18.7556 15.7423 17.7489 16.7491C17.4735 17.0245 17.2075 17.2999 16.9321 17.5659C16.1343 18.3827 15.3745 19.1425 14.5482 19.8833C14.5292 19.9023 14.5102 19.9118 14.5007 19.9308C13.6839 20.7476 13.8359 21.5453 14.0069 22.0867C14.0164 22.1152 14.0259 22.1437 14.0354 22.1722C14.7097 23.8058 15.6594 25.3444 17.1031 27.1774L17.1126 27.1869C19.7339 30.4161 22.4977 32.9329 25.5464 34.8609C25.9358 35.1079 26.3347 35.3073 26.7146 35.4973C27.0565 35.6682 27.3794 35.8297 27.6549 36.0006C27.6928 36.0196 27.7308 36.0481 27.7688 36.0671C28.0917 36.2286 28.3957 36.3046 28.7091 36.3046C29.4974 36.3046 29.9913 35.8107 30.1527 35.6492L33.4009 32.4011C33.7238 32.0781 34.2367 31.6887 34.835 31.6887C35.4239 31.6887 35.9082 32.0591 36.2027 32.3821C36.2122 32.3916 36.2122 32.3916 36.2217 32.4011L41.4548 37.6342C42.4331 38.603 42.4331 39.6002 41.4643 40.6069Z" fill="white"/>
<path d="M26.8191 13.4351C29.3074 13.853 31.5678 15.0307 33.3724 16.8352C35.1769 18.6398 36.3451 20.9002 36.7725 23.3886C36.877 24.0154 37.4183 24.4523 38.0357 24.4523C38.1117 24.4523 38.1781 24.4428 38.2541 24.4333C38.9569 24.3193 39.4223 23.6545 39.3084 22.9517C38.7955 19.9409 37.3709 17.1962 35.1959 15.0212C33.021 12.8463 30.2762 11.4216 27.2654 10.9088C26.5626 10.7948 25.9073 11.2602 25.7838 11.9535C25.6604 12.6468 26.1162 13.3211 26.8191 13.4351Z" fill="white"/>
<path d="M47.4476 22.5809C46.6023 17.6232 44.2659 13.1119 40.6759 9.52178C37.0858 5.9317 32.5744 3.5953 27.6167 2.75002C26.9234 2.62655 26.2681 3.10143 26.1446 3.79475C26.0306 4.49757 26.496 5.1529 27.1988 5.27637C31.6247 6.02667 35.6612 8.12564 38.8713 11.3263C42.0815 14.5365 44.171 18.573 44.9213 22.9988C45.0258 23.6257 45.5671 24.0625 46.1845 24.0625C46.2604 24.0625 46.3269 24.053 46.4029 24.0435C47.0962 23.9391 47.5711 23.2742 47.4476 22.5809Z" fill="white"/>
</svg>
