<svg width="189" height="50" viewBox="0 0 189 50" fill="none" xmlns="http://www.w3.org/2000/svg">
<path d="M61.872 35.5117V16.1417H69.1C70.4173 16.1417 71.5787 16.3844 72.584 16.8697C73.6067 17.3377 74.404 18.0311 74.976 18.9497C75.548 19.8511 75.834 20.9517 75.834 22.2517C75.834 23.5344 75.5393 24.6351 74.95 25.5537C74.378 26.4551 73.5893 27.1484 72.584 27.6337C71.5787 28.1191 70.4173 28.3617 69.1 28.3617H65.408V35.5117H61.872ZM65.408 25.2417H69.152C69.7933 25.2417 70.348 25.1204 70.816 24.8777C71.284 24.6177 71.648 24.2624 71.908 23.8117C72.168 23.3611 72.298 22.8411 72.298 22.2517C72.298 21.6451 72.168 21.1251 71.908 20.6917C71.648 20.2411 71.284 19.8944 70.816 19.6517C70.348 19.3917 69.7933 19.2617 69.152 19.2617H65.408V25.2417ZM78.4454 35.5117V21.3677H81.6434V24.5137L81.3834 24.0457C81.7127 22.9884 82.224 22.2517 82.9174 21.8357C83.628 21.4197 84.4774 21.2117 85.4654 21.2117H86.2974V24.2277H85.0754C84.1047 24.2277 83.3247 24.5311 82.7354 25.1377C82.146 25.7271 81.8514 26.5591 81.8514 27.6337V35.5117H78.4454ZM95.086 35.8237C93.6993 35.8237 92.434 35.5031 91.29 34.8617C90.1633 34.2204 89.262 33.3451 88.586 32.2357C87.9273 31.1264 87.598 29.8611 87.598 28.4397C87.598 27.0184 87.9273 25.7531 88.586 24.6437C89.262 23.5344 90.1633 22.6591 91.29 22.0177C92.4167 21.3764 93.682 21.0557 95.086 21.0557C96.4727 21.0557 97.7293 21.3764 98.856 22.0177C99.9827 22.6591 100.875 23.5344 101.534 24.6437C102.21 25.7357 102.548 27.0011 102.548 28.4397C102.548 29.8611 102.21 31.1264 101.534 32.2357C100.858 33.3451 99.9567 34.2204 98.83 34.8617C97.7033 35.5031 96.4553 35.8237 95.086 35.8237ZM95.086 32.7037C95.8487 32.7037 96.516 32.5217 97.088 32.1577C97.6773 31.7937 98.1367 31.2911 98.466 30.6497C98.8127 29.9911 98.986 29.2544 98.986 28.4397C98.986 27.6077 98.8127 26.8797 98.466 26.2557C98.1367 25.6144 97.6773 25.1117 97.088 24.7477C96.516 24.3664 95.8487 24.1757 95.086 24.1757C94.306 24.1757 93.6213 24.3664 93.032 24.7477C92.4427 25.1117 91.9747 25.6144 91.628 26.2557C91.2987 26.8797 91.134 27.6077 91.134 28.4397C91.134 29.2544 91.2987 29.9911 91.628 30.6497C91.9747 31.2911 92.4427 31.7937 93.032 32.1577C93.6213 32.5217 94.306 32.7037 95.086 32.7037ZM110.513 35.8237C109.005 35.8237 107.688 35.4684 106.561 34.7577C105.452 34.0297 104.689 33.0504 104.273 31.8197L106.821 30.5977C107.185 31.3951 107.688 32.0191 108.329 32.4697C108.988 32.9204 109.716 33.1457 110.513 33.1457C111.137 33.1457 111.631 33.0071 111.995 32.7297C112.359 32.4524 112.541 32.0884 112.541 31.6377C112.541 31.3604 112.463 31.1351 112.307 30.9617C112.168 30.7711 111.969 30.6151 111.709 30.4937C111.466 30.3551 111.198 30.2424 110.903 30.1557L108.589 29.5057C107.393 29.1591 106.483 28.6304 105.859 27.9197C105.252 27.2091 104.949 26.3684 104.949 25.3977C104.949 24.5311 105.166 23.7771 105.599 23.1357C106.05 22.4771 106.665 21.9657 107.445 21.6017C108.242 21.2377 109.152 21.0557 110.175 21.0557C111.51 21.0557 112.688 21.3764 113.711 22.0177C114.734 22.6591 115.462 23.5604 115.895 24.7217L113.295 25.9437C113.052 25.3024 112.645 24.7911 112.073 24.4097C111.501 24.0284 110.86 23.8377 110.149 23.8377C109.577 23.8377 109.126 23.9677 108.797 24.2277C108.468 24.4877 108.303 24.8257 108.303 25.2417C108.303 25.5017 108.372 25.7271 108.511 25.9177C108.65 26.1084 108.84 26.2644 109.083 26.3857C109.343 26.5071 109.638 26.6197 109.967 26.7237L112.229 27.3997C113.39 27.7464 114.283 28.2664 114.907 28.9597C115.548 29.6531 115.869 30.5024 115.869 31.5077C115.869 32.3571 115.644 33.1111 115.193 33.7697C114.742 34.4111 114.118 34.9137 113.321 35.2777C112.524 35.6417 111.588 35.8237 110.513 35.8237ZM118.486 35.5117V15.8297H121.892V24.1497L121.424 23.6557C121.754 22.8064 122.291 22.1651 123.036 21.7317C123.799 21.2811 124.683 21.0557 125.688 21.0557C126.728 21.0557 127.647 21.2811 128.444 21.7317C129.259 22.1824 129.892 22.8151 130.342 23.6297C130.793 24.4271 131.018 25.3544 131.018 26.4117V35.5117H127.612V27.2177C127.612 26.5937 127.491 26.0564 127.248 25.6057C127.006 25.1551 126.668 24.8084 126.234 24.5657C125.818 24.3057 125.324 24.1757 124.752 24.1757C124.198 24.1757 123.704 24.3057 123.27 24.5657C122.837 24.8084 122.499 25.1551 122.256 25.6057C122.014 26.0564 121.892 26.5937 121.892 27.2177V35.5117H118.486ZM133.899 35.5117V21.3677H137.305V35.5117H133.899ZM133.899 19.7817V16.1417H137.305V19.7817H133.899ZM147.157 35.8237C145.701 35.8237 144.427 35.4944 143.335 34.8357C142.243 34.1771 141.394 33.2844 140.787 32.1577C140.181 31.0311 139.877 29.7831 139.877 28.4137C139.877 26.9924 140.181 25.7357 140.787 24.6437C141.411 23.5344 142.252 22.6591 143.309 22.0177C144.384 21.3764 145.58 21.0557 146.897 21.0557C148.007 21.0557 148.977 21.2377 149.809 21.6017C150.659 21.9657 151.378 22.4684 151.967 23.1097C152.557 23.7511 153.007 24.4877 153.319 25.3197C153.631 26.1344 153.787 27.0184 153.787 27.9717C153.787 28.2144 153.77 28.4657 153.735 28.7257C153.718 28.9857 153.675 29.2111 153.605 29.4017H142.685V26.8017H151.681L150.069 28.0237C150.225 27.2264 150.182 26.5157 149.939 25.8917C149.714 25.2677 149.333 24.7737 148.795 24.4097C148.275 24.0457 147.643 23.8637 146.897 23.8637C146.187 23.8637 145.554 24.0457 144.999 24.4097C144.445 24.7564 144.02 25.2764 143.725 25.9697C143.448 26.6457 143.344 27.4691 143.413 28.4397C143.344 29.3064 143.457 30.0777 143.751 30.7537C144.063 31.4124 144.514 31.9237 145.103 32.2877C145.71 32.6517 146.403 32.8337 147.183 32.8337C147.963 32.8337 148.622 32.6691 149.159 32.3397C149.714 32.0104 150.147 31.5684 150.459 31.0137L153.215 32.3657C152.938 33.0417 152.505 33.6397 151.915 34.1597C151.326 34.6797 150.624 35.0871 149.809 35.3817C149.012 35.6764 148.128 35.8237 147.157 35.8237ZM156.369 35.5117V15.8297H159.775V35.5117H156.369ZM169.498 35.8237C168.129 35.8237 166.907 35.5031 165.832 34.8617C164.757 34.2031 163.908 33.3104 163.284 32.1837C162.66 31.0571 162.348 29.8091 162.348 28.4397C162.348 27.0531 162.66 25.8051 163.284 24.6957C163.908 23.5864 164.757 22.7024 165.832 22.0437C166.924 21.3851 168.137 21.0557 169.472 21.0557C170.547 21.0557 171.5 21.2724 172.332 21.7057C173.181 22.1217 173.849 22.7111 174.334 23.4737L173.814 24.1757V15.8297H177.22V35.5117H173.996V32.7817L174.36 33.4577C173.875 34.2204 173.199 34.8097 172.332 35.2257C171.465 35.6244 170.521 35.8237 169.498 35.8237ZM169.862 32.7037C170.642 32.7037 171.327 32.5217 171.916 32.1577C172.505 31.7937 172.965 31.2911 173.294 30.6497C173.641 30.0084 173.814 29.2717 173.814 28.4397C173.814 27.6251 173.641 26.8971 173.294 26.2557C172.965 25.5971 172.505 25.0857 171.916 24.7217C171.327 24.3577 170.642 24.1757 169.862 24.1757C169.099 24.1757 168.415 24.3664 167.808 24.7477C167.201 25.1117 166.725 25.6144 166.378 26.2557C166.049 26.8797 165.884 27.6077 165.884 28.4397C165.884 29.2717 166.049 30.0084 166.378 30.6497C166.725 31.2911 167.201 31.7937 167.808 32.1577C168.415 32.5217 169.099 32.7037 169.862 32.7037Z" fill="#010535"/>
<path d="M182.001 35.5117V31.8717H185.433V35.5117H182.001Z" fill="#4D51AB"/>
<circle cx="25" cy="25" r="25" fill="url(#paint0_linear_156_18)"/>
<path d="M39.1474 16.3407L25.4097 9.47173C25.1517 9.34276 24.8482 9.34276 24.5904 9.47173L10.8526 16.3407C10.5422 16.4958 10.3462 16.8131 10.3462 17.16V22.7365C10.3462 30.967 15.9936 38.736 24.8071 40.625C34.0474 39.1213 39.6795 30.6791 39.654 22.7367V17.16C39.6538 16.8131 39.4578 16.4958 39.1474 16.3407ZM25 20.1691C24.423 20.1691 23.9537 19.6995 23.9537 19.1226C24.0063 17.7362 25.9941 17.7367 26.0465 19.1226C26.0464 19.6997 25.577 20.1691 25 20.1691ZM37.8216 22.7365C37.8216 31.5235 31.5158 35.8339 29.8412 36.841V27.3522L31.569 25.6244C33.432 26.5875 35.757 25.1545 35.7287 23.0475C35.7287 21.4603 34.4373 20.1689 32.8501 20.1689C30.7434 20.141 29.31 22.4657 30.2734 24.3288L28.2773 26.325C28.1055 26.4967 28.0089 26.7297 28.0089 26.9727V37.7929C27.3308 38.093 26.6317 38.3477 25.9161 38.5544V21.851C28.9626 20.7758 28.2702 16.3082 24.9999 16.244C21.7291 16.3084 21.0377 20.7764 24.0838 21.851V38.5546C23.3682 38.348 22.6691 38.0932 21.9909 37.793V26.9728C21.9909 26.7299 21.8944 26.4967 21.7226 26.3251L19.7265 24.329C20.6896 22.466 19.2566 20.141 17.1496 20.1692C15.5624 20.1692 14.271 21.4605 14.271 23.0478C14.2431 25.1545 16.5677 26.5881 18.4309 25.6247L20.1587 27.3525V36.8413C18.4842 35.8341 12.1784 31.5236 12.1784 22.7367V17.7263L25 11.3154L37.8216 17.7263V22.7365ZM31.8037 23.0477C31.8037 22.4707 32.2731 22.0013 32.8501 22.0013C34.2364 22.0539 34.236 24.0418 32.8501 24.0942C32.2731 24.0942 31.8037 23.6247 31.8037 23.0477ZM18.1963 23.0477C18.1963 23.6247 17.7269 24.0942 17.1499 24.0942C15.7636 24.0416 15.7639 22.0538 17.1499 22.0013C17.7269 22.0013 18.1963 22.4707 18.1963 23.0477Z" fill="white"/>
<defs>
<linearGradient id="paint0_linear_156_18" x1="0.512919" y1="24.6182" x2="49.4871" y2="24.7481" gradientUnits="userSpaceOnUse">
<stop stop-color="#4D51AB"/>
<stop offset="1" stop-color="#55CEE3"/>
</linearGradient>
</defs>
</svg>
