<svg width="40" height="31" viewBox="0 0 40 31" fill="none" xmlns="http://www.w3.org/2000/svg">
<path d="M4.00207 27.9261C1.79619 25.4996 0.472656 22.8525 0.472656 18.4408C0.472656 10.7202 5.98736 3.88195 13.708 0.352539L15.6932 3.22019C8.41383 7.19077 6.86972 12.2643 6.42854 15.5731C7.53148 14.9114 9.0756 14.6908 10.6197 14.9114C14.5903 15.3525 17.6785 18.4408 17.6785 22.632C17.6785 24.6172 16.7962 26.6025 15.4727 28.1467C13.9285 29.6908 12.1638 30.3525 9.95795 30.3525C7.53148 30.3525 5.3256 29.2496 4.00207 27.9261ZM26.0609 27.9261C23.855 25.4996 22.5315 22.8525 22.5315 18.4408C22.5315 10.7202 28.0462 3.88195 35.7668 0.352539L37.7521 3.22019C30.4727 7.19077 28.9285 12.2643 28.4874 15.5731C29.5903 14.9114 31.1344 14.6908 32.6785 14.9114C36.6491 15.3525 39.7374 18.4408 39.7374 22.632C39.7374 24.6172 38.855 26.6025 37.5315 28.1467C36.208 29.6908 34.2227 30.3525 32.0168 30.3525C29.5903 30.3525 27.3844 29.2496 26.0609 27.9261Z" fill="white"/>
</svg>
